0
SECTION
2
HEADER
9
$INSUNITS
70
4
9
$ACADVER
1
AC1014
9
$HANDSEED
5
FFFF
0
ENDSEC
0
SECTION
2
TABLES
0
TABLE
2
VPORT
5
8
100
AcDbSymbolTable
0
ENDTAB
0
TABLE
2
LTYPE
5
5
100
AcDbSymbolTable
0
LTYPE
5
14
100
AcDbSymbolTableRecord
100
AcDbLinetypeTableRecord
2
BYBLOCK
70
0
0
LTYPE
5
15
100
AcDbSymbolTableRecord
100
AcDbLinetypeTableRecord
2
BYLAYER
70
0
0
ENDTAB
0
TABLE
2
LAYER
5
2
100
AcDbSymbolTable
70
2
0
LAYER
5
50
100
AcDbSymbolTableRecord
100
AcDbLayerTableRecord
2
0
70
0
6
CONTINUOUS
0
ENDTAB
0
TABLE
2
STYLE
5
3
100
AcDbSymbolTable
70
1
0
STYLE
5
11
100
AcDbSymbolTableRecord
100
AcDbTextStyleTableRecord
2
STANDARD
70
0
0
ENDTAB
0
TABLE
2
VIEW
5
6
100
AcDbSymbolTable
70
0
0
ENDTAB
0
TABLE
2
UCS
5
7
100
AcDbSymbolTable
70
0
0
ENDTAB
0
TABLE
2
APPID
5
9
100
AcDbSymbolTable
70
2
0
APPID
5
12
100
AcDbSymbolTableRecord
100
AcDbRegAppTableRecord
2
ACAD
70
0
0
ENDTAB
0
TABLE
2
DIMSTYLE
5
A
100
AcDbSymbolTable
70
1
0
ENDTAB
0
TABLE
2
BLOCK_RECORD
5
1
100
AcDbSymbolTable
70
1
0
BLOCK_RECORD
5
1F
100
AcDbSymbolTableRecord
100
AcDbBlockTableRecord
2
*MODEL_SPACE
0
BLOCK_RECORD
5
1B
100
AcDbSymbolTableRecord
100
AcDbBlockTableRecord
2
*PAPER_SPACE
0
ENDTAB
0
ENDSEC
0
SECTION
2
BLOCKS
0
BLOCK
5
20
100
AcDbEntity
100
AcDbBlockBegin
2
*MODEL_SPACE
0
ENDBLK
5
21
100
AcDbEntity
100
AcDbBlockEnd
0
BLOCK
5
1C
100
AcDbEntity
100
AcDbBlockBegin
2
*PAPER_SPACE
0
ENDBLK
5
1D
100
AcDbEntity
100
AcDbBlockEnd
0
ENDSEC
0
SECTION
2
ENTITIES
0
ARC
5
100
100
AcDbEntity
8
0
100
AcDbCircle
10
10.489001167626171
20
260.1917943476862
30
-1.8952886575718253e-05
40
0.99999999999999645
210
0
220
0
230
1
100
AcDbArc
50
0
51
90
0
LINE
5
101
100
AcDbEntity
8
0
100
AcDbLine
10
11.489001167626167
20
260.19179434768614
30
-1.8952886575718253e-05
11
11.489001167626203
21
253.9417943476862
31
-1.8952886733369922e-05
0
ARC
5
102
100
AcDbEntity
8
0
100
AcDbCircle
10
10.489001167626171
20
253.9417943476862
30
-1.8952886597922713e-05
40
1.0000000000000142
210
0
220
-2.7755575615628519e-15
230
1
100
AcDbArc
50
-90
51
0
0
LINE
5
103
100
AcDbEntity
8
0
100
AcDbLine
10
10.489001167626171
20
252.9417943476862
30
-1.8952886600698271e-05
11
-18.110998832373824
21
252.9417943476862
31
-1.8952886733369922e-05
0
ARC
5
104
100
AcDbEntity
8
0
100
AcDbCircle
10
-18.110998832373824
20
253.9417943476862
30
-1.8952886597367602e-05
40
1.0000000000000142
210
-2.7755575615628519e-15
220
0
230
1
100
AcDbArc
50
180
51
270
0
LINE
5
105
100
AcDbEntity
8
0
100
AcDbLine
10
-19.110998832373838
20
253.9417943476862
30
-1.895288660014316e-05
11
-19.110998832373838
21
260.19179434768614
31
-1.8952886833289995e-05
0
ARC
5
106
100
AcDbEntity
8
0
100
AcDbCircle
10
-18.110998832373824
20
260.1917943476862
30
-1.8952886575163141e-05
40
1.0000000000000142
210
0
220
-0
230
1
100
AcDbArc
50
90
51
180
0
LINE
5
107
100
AcDbEntity
8
0
100
AcDbLine
10
-18.110998832373824
20
261.1917943476862
30
-1.8952886575163141e-05
11
-6.8109988323738335
21
261.1917943476862
31
-1.8952886833289995e-05
0
ARC
5
108
100
AcDbEntity
8
0
100
AcDbCircle
10
-6.810998832373869
20
262.19179434768625
30
-1.8952886567946692e-05
40
1.0000000000000497
210
9.4268878173901541e-27
220
-2.6534330288539924e-13
230
1
100
AcDbArc
50
270.00000000000205
51
360
0
LINE
5
109
100
AcDbEntity
8
0
100
AcDbLine
10
-5.8109988323738193
20
262.1917943476862
30
-1.8952886567946692e-05
11
-5.8109988323738193
21
263.1917943476862
31
-1.8952886833289995e-05
0
ARC
5
110
100
AcDbEntity
8
0
100
AcDbCircle
10
-3.8109988323738264
20
263.1917943476862
30
-1.8952886564616023e-05
40
1.9999999999999929
210
0
220
0
230
1
100
AcDbArc
50
0
51
180
0
LINE
5
111
100
AcDbEntity
8
0
100
AcDbLine
10
-1.8109988323738335
20
263.1917943476862
30
-1.8952886564616023e-05
11
-1.810998832373798
21
262.1917943476862
31
-1.8952886833289995e-05
0
ARC
5
112
100
AcDbEntity
8
0
100
AcDbCircle
10
-0.81099883237378378
20
262.19179434768625
30
-1.8952886567946692e-05
40
1.0000000000000142
210
-2.6534330288540863e-13
220
-9.4268878173908227e-27
230
1
100
AcDbArc
50
180
51
269.99999999999795
0
LINE
5
113
100
AcDbEntity
8
0
100
AcDbLine
10
-0.81099883237381931
20
261.1917943476862
30
-1.8952886567946692e-05
11
10.489001167626171
21
261.1917943476862
31
-1.8952886572387584e-05
0
LINE
5
114
100
AcDbEntity
8
0
100
AcDbLine
10
160.88900116762628
20
306.66679153442215
30
-1.8952886733369922e-05
11
160.88900116762628
21
406.36679434768615
31
-1.8952886733369922e-05
0
LINE
5
115
100
AcDbEntity
8
0
100
AcDbLine
10
160.88900116762628
20
406.36679434768615
30
-1.8952886733369922e-05
11
-168.71099883237375
21
406.3667943476861
31
-1.8952886733369922e-05
0
LINE
5
116
100
AcDbEntity
8
0
100
AcDbLine
10
-168.71099883237375
20
406.3667943476861
30
-1.8952886733369922e-05
11
-168.71099883237375
21
306.66679153437792
31
-1.8952886733369922e-05
0
LINE
5
117
100
AcDbEntity
8
0
100
AcDbLine
10
-168.71099883237375
20
306.66679153437792
30
-1.8952886733369922e-05
11
-113.21099246317803
21
306.66679153437792
31
-1.8952886733369922e-05
0
LINE
5
118
100
AcDbEntity
8
0
100
AcDbLine
10
-113.21099246317803
20
306.66679153437792
30
-1.8952886733369922e-05
11
-107.7109924631781
21
301.16679153437792
31
-1.8952886733369922e-05
0
LINE
5
119
100
AcDbEntity
8
0
100
AcDbLine
10
-107.7109924631781
20
301.16679153437792
30
-1.8952886733369922e-05
11
-107.7109924631781
21
201.96679153437802
31
-1.8952886733369922e-05
0
LINE
5
120
100
AcDbEntity
8
0
100
AcDbLine
10
-107.7109924631781
20
201.96679153437802
30
-1.8952886733369922e-05
11
-113.21099246317829
21
196.46679153437788
31
-1.8952886733369922e-05
0
LINE
5
121
100
AcDbEntity
8
0
100
AcDbLine
10
-113.21099246317829
20
196.46679153437788
30
-1.8952886733369922e-05
11
-188.71099929809577
21
196.46679153437788
31
-1.8952886733369922e-05
0
LINE
5
122
100
AcDbEntity
8
0
100
AcDbLine
10
-188.71099929809577
20
196.46679153437788
30
-1.8952886733369922e-05
11
-188.71099929809577
21
-90.433208465575703
31
-1.8952886733369922e-05
0
LINE
5
123
100
AcDbEntity
8
0
100
AcDbLine
10
-188.71099929809577
20
-90.433208465575703
30
-1.8952886733369922e-05
11
180.88900070190425
21
-90.43320846557566
31
-1.8952886733369922e-05
0
LINE
5
124
100
AcDbEntity
8
0
100
AcDbLine
10
180.88900070190425
20
-90.43320846557566
30
-1.8952886733369922e-05
11
180.88900070190425
21
196.46679153442196
31
-1.8952886733369922e-05
0
LINE
5
125
100
AcDbEntity
8
0
100
AcDbLine
10
180.88900070190425
20
196.46679153442196
30
-1.8952886733369922e-05
11
105.38899612856977
21
196.46679153442193
31
-1.8952886733369922e-05
0
LINE
5
126
100
AcDbEntity
8
0
100
AcDbLine
10
105.38899612856977
20
196.46679153442193
30
-1.8952886733369922e-05
11
99.888996128569772
21
201.96679153442201
31
-1.8952886733369922e-05
0
LINE
5
127
100
AcDbEntity
8
0
100
AcDbLine
10
99.888996128569772
20
201.96679153442201
30
-1.8952886733369922e-05
11
99.888996128569758
21
301.16679153442226
31
-1.8952886733369922e-05
0
LINE
5
128
100
AcDbEntity
8
0
100
AcDbLine
10
99.888996128569758
20
301.16679153442226
30
-1.8952886733369922e-05
11
105.38899612856972
21
306.66679153442215
31
-1.8952886733369922e-05
0
LINE
5
129
100
AcDbEntity
8
0
100
AcDbLine
10
105.38899612856972
20
306.66679153442215
30
-1.8952886733369922e-05
11
160.88900116762628
21
306.66679153442215
31
-1.8952886733369922e-05
0
LINE
5
130
100
AcDbEntity
8
0
100
AcDbLine
10
37.902529295986852
20
45.135773698660309
30
-1.8952886733369922e-05
11
154.83448350948964
21
45.135773698660309
31
-1.8952886733369922e-05
0
LINE
5
131
100
AcDbEntity
8
0
100
AcDbLine
10
154.83448350948964
20
45.135773698660309
30
-1.8952886733369922e-05
11
154.83448350948964
21
34.293269356309075
31
-1.8952886733369922e-05
0
LINE
5
132
100
AcDbEntity
8
0
100
AcDbLine
10
154.83448350948964
20
34.293269356309075
30
-1.8952886733369922e-05
11
37.902529295986852
21
34.293269356309075
31
-1.8952886733369922e-05
0
LINE
5
133
100
AcDbEntity
8
0
100
AcDbLine
10
37.902529295986852
20
34.293269356309075
30
-1.8952886733369922e-05
11
37.902529295986852
21
45.135773698660309
31
-1.8952886733369922e-05
0
ARC
5
134
100
AcDbEntity
8
0
100
AcDbCircle
10
24.939001046332976
20
37.888133761439207
30
-1.8952886733369922e-05
40
2.1499999999999981
210
0
220
0
230
1
100
AcDbArc
50
-120.58022327965206
51
44.88651364911189
0
LINE
5
135
100
AcDbEntity
8
0
100
AcDbLine
10
23.845200835590497
20
36.037160747324819
30
-1.8952886733369922e-05
11
12.844458313597134
21
21.879011459099118
31
-1.8952886733369922e-05
0
LINE
5
136
100
AcDbEntity
8
0
100
AcDbLine
10
12.844458313597134
20
21.879011459099118
30
-1.8952886733369922e-05
11
-15.618695830974474
21
92.510456751431718
31
-1.8952886733369922e-05
0
LINE
5
137
100
AcDbEntity
8
0
100
AcDbLine
10
-15.618695830974474
20
92.510456751431718
30
-1.8952886733369922e-05
11
-3.2718298455615979
21
108.98983260166227
31
-1.8952886733369922e-05
0
LINE
5
138
100
AcDbEntity
8
0
100
AcDbLine
10
-3.2718298455615979
20
108.98983260166227
30
-1.8952886733369922e-05
11
-1.2843623654574898
21
108.98983260166227
31
-1.8952886733369922e-05
0
LINE
5
139
100
AcDbEntity
8
0
100
AcDbLine
10
-1.2843623654574898
20
108.98983260166227
30
-1.8952886733369922e-05
11
18.080219719764621
21
59.389402298992984
31
-1.8952886733369922e-05
0
LINE
5
140
100
AcDbEntity
8
0
100
AcDbLine
10
18.080219719764621
20
59.389402298992984
30
-1.8952886733369922e-05
11
65.806182261642888
21
121.18200226366361
31
-1.8952886733369922e-05
0
LINE
5
141
100
AcDbEntity
8
0
100
AcDbLine
10
65.806182261642888
20
121.18200226366361
30
-1.8952886733369922e-05
11
90.001903913734225
21
121.18200226366362
31
-1.8952886733369922e-05
0
LINE
5
142
100
AcDbEntity
8
0
100
AcDbLine
10
90.001903913734225
20
121.18200226366362
30
-1.8952886733369922e-05
11
26.462288875419357
21
39.405399127074823
31
-1.8952886733369922e-05
0
LINE
5
143
100
AcDbEntity
8
0
100
AcDbLine
10
-69.714191679031856
20
86.232731781414756
30
-1.8952886733369922e-05
11
-102.95334556378599
21
87.521940110856974
31
-1.8952886733369922e-05
0
ARC
5
144
100
AcDbEntity
8
0
100
AcDbCircle
10
-72.849506912122735
20
-107.65948372091071
30
-1.8952886733369922e-05
40
197.48931442121506
210
0
220
-0
230
1
100
AcDbArc
50
88.521044816525489
51
98.767934209006441
0
LINE
5
145
100
AcDbEntity
8
0
100
AcDbLine
10
-67.752352916854832
20
89.764041553333286
30
-1.8952886733369922e-05
11
-69.714191679031856
21
86.232731781414756
31
-1.8952886733369922e-05
0
LINE
5
146
100
AcDbEntity
8
0
100
AcDbLine
10
-65.247055418226296
20
92.510456751431732
30
-1.8952886733369922e-05
11
-117.19068972437725
21
93.463508933373291
31
-1.8952886733369922e-05
0
ARC
5
147
100
AcDbEntity
8
0
100
AcDbCircle
10
-47.246964554623538
20
-1034.8405706338031
30
-1.8952886733369922e-05
40
1130.4699114344244
210
0
220
0
230
1
100
AcDbArc
50
90.827833193798369
51
93.547234160405949
0
LINE
5
148
100
AcDbEntity
8
0
100
AcDbLine
10
-63.579894572735718
20
95.511346273307197
30
-1.8952886733369922e-05
11
-65.247055418226296
21
92.510456751431732
31
-1.8952886733369922e-05
0
LINE
5
149
100
AcDbEntity
8
0
100
AcDbLine
10
-96.732773448571436
20
109.70064562057247
30
-1.8952886733369922e-05
11
-124.00685419986078
21
110.69660924349657
31
-1.8952886733369922e-05
0
ARC
5
150
100
AcDbEntity
8
0
100
AcDbCircle
10
-90.94379049035939
20
-107.46321042588545
30
-1.8952886733369922e-05
40
220.65102107181792
210
0
220
0
230
1
100
AcDbArc
50
91.085503630764421
51
98.617842148010482
0
LINE
5
151
100
AcDbEntity
8
0
100
AcDbLine
10
-95.123909134595834
20
113.14821200766842
30
-1.8952886733369922e-05
11
-96.732773448571436
21
109.70064562057247
31
-1.8952886733369922e-05
0
LINE
5
152
100
AcDbEntity
8
0
100
AcDbLine
10
-91.913841765267748
20
117.85222481138092
30
-1.8952886733369922e-05
11
-169.25590254767312
21
119.76913241077811
31
-1.8952886733369922e-05
0
ARC
5
153
100
AcDbEntity
8
0
100
AcDbCircle
10
-94.666326280599577
20
-1839.5619785432361
30
-1.8952886733369922e-05
40
1960.7503684151111
210
0
220
-0
230
1
100
AcDbArc
50
89.853750048492472
51
92.180134414400058
0
LINE
5
154
100
AcDbEntity
8
0
100
AcDbLine
10
-89.661431725709406
20
121.18200226366392
30
-1.8952886733369922e-05
11
-91.913841765267748
21
117.85222481138092
31
-1.8952886733369922e-05
0
LINE
5
155
100
AcDbEntity
8
0
100
AcDbLine
10
19.305733404553198
20
98.214946082246513
30
-1.8952886733369922e-05
11
16.536741277216809
21
102.07913658829186
31
-1.8952886733369922e-05
0
LINE
5
156
100
AcDbEntity
8
0
100
AcDbLine
10
16.536741277216809
20
102.07913658829186
30
-1.8952886733369922e-05
11
25.401349553404025
21
131.32601102340081
31
-1.8952886733369922e-05
0
LINE
5
157
100
AcDbEntity
8
0
100
AcDbLine
10
25.401349553404025
20
131.32601102340081
30
-1.8952886733369922e-05
11
29.150576385955667
21
131.32601102340081
31
-1.8952886733369922e-05
0
LINE
5
158
100
AcDbEntity
8
0
100
AcDbLine
10
-89.392971660655121
20
148.22089201277393
30
-1.8952886733369922e-05
11
-105.60059776333904
21
158.38840442928819
31
-1.8952886733369922e-05
0
LINE
5
159
100
AcDbEntity
8
0
100
AcDbLine
10
-105.60059776333904
20
158.38840442928819
30
-1.8952886733369922e-05
11
-9.1650285051022706
21
162.11807372819459
31
-1.8952886733369922e-05
0
LINE
5
160
100
AcDbEntity
8
0
100
AcDbLine
10
-9.1650285051022706
20
162.11807372819459
30
-1.8952886733369922e-05
11
-44.95795630566068
21
187.10799853903924
31
-1.8952886733369922e-05
0
LINE
5
161
100
AcDbEntity
8
0
100
AcDbLine
10
-44.95795630566068
20
187.10799853903924
30
-1.8952886733369922e-05
11
7.4700028661117202
21
187.54257576690364
31
-1.8952886733369922e-05
0
LINE
5
162
100
AcDbEntity
8
0
100
AcDbLine
10
7.4700028661117202
20
187.54257576690364
30
-1.8952886733369922e-05
11
38.63982285519274
21
168.81722926376082
31
-1.8952886733369922e-05
0
LINE
5
163
100
AcDbEntity
8
0
100
AcDbLine
10
38.63982285519274
20
168.81722926376082
30
-1.8952886733369922e-05
11
69.1150930811027
21
179.55359361031327
31
-1.8952886733369922e-05
0
ARC
5
164
100
AcDbEntity
8
0
100
AcDbCircle
10
75.382636395462072
20
161.76311351928229
30
-1.8952886733369922e-05
40
18.862218349566952
210
0
220
-0
230
1
100
AcDbArc
50
64.805970050129375
51
109.40723816350135
0
LINE
5
165
100
AcDbEntity
8
0
100
AcDbLine
10
83.411999982625943
20
178.83099567999182
30
-1.8952886733369922e-05
11
107.90018567515008
21
167.31084662665688
31
-1.8952886733369922e-05
0
ARC
5
166
100
AcDbEntity
8
0
100
AcDbCircle
10
-3.7336455356356169
20
-256.84571589727869
30
-1.8952886733369922e-05
40
438.60107364542489
210
0
220
-0
230
1
100
AcDbArc
50
67.875393812150207
51
75.254708542179074
0
ARC
5
167
100
AcDbEntity
8
0
100
AcDbCircle
10
97.297050454315425
20
276.71113488064401
30
-1.8952886733369922e-05
40
142.50932902406123
210
0
220
0
230
1
100
AcDbArc
50
280.91393578553743
51
296.75583055489358
0
LINE
5
168
100
AcDbEntity
8
0
100
AcDbLine
10
124.27895089415483
20
136.7794161477465
30
-1.8952886733369922e-05
11
57.535063291339185
21
136.7794161477465
31
-1.8952886733369922e-05
0
LINE
5
169
100
AcDbEntity
8
0
100
AcDbLine
10
57.535063291339185
20
136.7794161477465
30
-1.8952886733369922e-05
11
21.530511303838615
21
92.910620484547906
31
-1.8952886733369922e-05
0
LINE
5
170
100
AcDbEntity
8
0
100
AcDbLine
10
21.530511303838615
20
92.910620484547906
30
-1.8952886733369922e-05
11
38.63982285519274
21
148.22089201277396
31
-1.8952886733369922e-05
0
LINE
5
171
100
AcDbEntity
8
0
100
AcDbLine
10
38.63982285519274
20
148.22089201277396
30
-1.8952886733369922e-05
11
-89.392971660655121
21
148.22089201277393
31
-1.8952886733369922e-05
0
LINE
5
172
100
AcDbEntity
8
0
100
AcDbLine
10
21.110023009913057
20
76.086258545161542
30
-1.8952886733369922e-05
11
61.784882778806448
21
130.08456146660359
31
-1.8952886733369922e-05
0
LINE
5
173
100
AcDbEntity
8
0
100
AcDbLine
10
61.784882778806448
20
130.08456146660359
30
-1.8952886733369922e-05
11
110.48879545885771
21
130.08456146660362
31
-1.8952886733369922e-05
0
LINE
5
174
100
AcDbEntity
8
0
100
AcDbLine
10
110.48879545885771
20
130.08456146660362
30
-1.8952886733369922e-05
11
107.15004451640212
21
125.69552523490755
31
-1.8952886733369922e-05
0
LINE
5
175
100
AcDbEntity
8
0
100
AcDbLine
10
63.292865994450835
20
125.69552523490754
30
-1.8952886733369922e-05
11
19.749850642441853
21
68.454995674040191
31
-1.8952886733369922e-05
0
LINE
5
176
100
AcDbEntity
8
0
100
AcDbLine
10
19.749850642441853
20
68.454995674040191
30
-1.8952886733369922e-05
11
3.4333080567830976
21
108.98983260166227
31
-1.8952886733369922e-05
0
LINE
5
177
100
AcDbEntity
8
0
100
AcDbLine
10
3.4333080567830976
20
108.98983260166227
30
-1.8952886733369922e-05
11
8.0580513815543142
21
108.98983260166227
31
-1.8952886733369922e-05
0
LINE
5
178
100
AcDbEntity
8
0
100
AcDbLine
10
8.0580513815543142
20
108.98983260166227
30
-1.8952886733369922e-05
11
21.110023009913057
21
76.086258545161542
31
-1.8952886733369922e-05
0
LINE
5
179
100
AcDbEntity
8
0
100
AcDbLine
10
-80.927596878397239
20
133.80480399773785
30
-1.8952886733369922e-05
11
-168.69987904097681
21
136.90264925052162
31
-1.8952886733369922e-05
0
ARC
5
180
100
AcDbEntity
8
0
100
AcDbCircle
10
-96.755428944733069
20
-1884.2841465126244
30
-1.8952886733369922e-05
40
2022.4668272352319
210
0
220
-0
230
1
100
AcDbArc
50
89.463834340059449
51
92.038591264595851
0
LINE
5
181
100
AcDbEntity
8
0
100
AcDbLine
10
-77.829751625626955
20
138.09412819390479
30
-1.8952886733369922e-05
11
-80.927596878397239
21
133.80480399773785
31
-1.8952886733369922e-05
0
LINE
5
182
100
AcDbEntity
8
0
100
AcDbLine
10
27.384251497103218
20
138.9269909590067
30
-1.8952886733369922e-05
11
12.302771913284243
21
119.7691324107879
31
-1.8952886733369922e-05
0
LINE
5
183
100
AcDbEntity
8
0
100
AcDbLine
10
12.302771913284243
20
119.7691324107879
30
-1.8952886733369922e-05
11
-5.8407050405836358
21
119.7691324107879
31
-1.8952886733369922e-05
0
LINE
5
184
100
AcDbEntity
8
0
100
AcDbLine
10
-5.8407050405836358
20
119.7691324107879
30
-1.8952886733369922e-05
11
-47.246221716179129
21
64.333269576926867
31
-1.8952886733369922e-05
0
LINE
5
185
100
AcDbEntity
8
0
100
AcDbLine
10
-47.246221716179129
20
64.333269576926867
30
-1.8952886733369922e-05
11
-70.325455624739874
21
64.333269576926867
31
-1.8952886733369922e-05
0
LINE
5
186
100
AcDbEntity
8
0
100
AcDbLine
10
-70.325455624739874
20
64.333269576926867
30
-1.8952886733369922e-05
11
-29.971072374698089
21
119.7691324107879
31
-1.8952886733369922e-05
0
LINE
5
187
100
AcDbEntity
8
0
100
AcDbLine
10
-29.971072374698089
20
119.7691324107879
30
-1.8952886733369922e-05
11
-74.52998932689755
21
119.7691324107879
31
-1.8952886733369922e-05
0
LINE
5
188
100
AcDbEntity
8
0
100
AcDbLine
10
-61.317018534494849
20
138.9269909590067
30
-1.8952886733369922e-05
11
27.384251497103218
21
138.9269909590067
31
-1.8952886733369922e-05
0
LINE
5
189
100
AcDbEntity
8
0
100
AcDbLine
10
-75.151287677054313
20
78.833797021215361
30
-1.8952886733369922e-05
11
-119.48884370204252
21
80.626237855044849
31
-1.8952886733369922e-05
0
ARC
5
190
100
AcDbEntity
8
0
100
AcDbCircle
10
-79.051838943939359
20
-361.69589684156875
30
-1.8952886733369922e-05
40
444.16666038366282
210
0
220
-0
230
1
100
AcDbArc
50
89.122545474554016
51
95.223449667514174
0
LINE
5
191
100
AcDbEntity
8
0
100
AcDbLine
10
-72.24992761000351
20
82.418678688869505
30
-1.8952886733369922e-05
11
-75.151287677054313
21
78.833797021215361
31
-1.8952886733369922e-05
0
LINE
5
192
100
AcDbEntity
8
0
100
AcDbLine
10
9.1052478085845934
20
18.335353031710078
30
-1.8952886733369922e-05
11
6.7001971034593666
21
15.320246324166504
31
-1.8952886733369922e-05
0
LINE
5
193
100
AcDbEntity
8
0
100
AcDbLine
10
-21.773997264110996
20
83.918764223234504
30
-1.8952886733369922e-05
11
-18.578369979716598
21
87.867238526211196
31
-1.8952886733369922e-05
0
LINE
5
194
100
AcDbEntity
8
0
100
AcDbLine
10
-18.578369979716598
20
87.867238526211196
30
-1.8952886733369922e-05
11
9.1052478085845934
21
18.335353031710078
31
-1.8952886733369922e-05
0
ARC
5
195
100
AcDbEntity
8
0
100
AcDbCircle
10
-52.193973676407808
20
-58.512795521733878
30
-1.8952886733369922e-05
40
106.08443196369244
210
0
220
-0
230
1
100
AcDbArc
50
89.999999999978286
51
97.775996759378145
0
LINE
5
196
100
AcDbEntity
8
0
100
AcDbLine
10
-52.193973676367627
20
47.57163644195856
30
-1.8952886733369922e-05
11
-36.663235473486395
21
47.571636441958525
31
-1.8952886733369922e-05
0
LINE
5
197
100
AcDbEntity
8
0
100
AcDbLine
10
-36.663235473486395
20
47.571636441958525
30
-1.8952886733369922e-05
11
-37.692535645622307
21
45.718896132124875
31
-1.8952886733369922e-05
0
LINE
5
198
100
AcDbEntity
8
0
100
AcDbLine
10
-37.692535645622307
20
45.718896132124875
30
-1.8952886733369922e-05
11
-66.547250471066207
21
46.596148675775808
31
-1.8952886733369922e-05
0
LINE
5
199
100
AcDbEntity
8
0
100
AcDbLine
10
-82.883481187960399
20
115.38750640599159
30
-1.8952886733369922e-05
11
-38.672153073718967
21
115.3875064059916
31
-1.8952886733369922e-05
0
LINE
5
200
100
AcDbEntity
8
0
100
AcDbLine
10
-38.672153073718967
20
115.3875064059916
30
-1.8952886733369922e-05
11
-78.872230983481472
21
59.942059966916581
31
-1.8952886733369922e-05
0
LINE
5
201
100
AcDbEntity
8
0
100
AcDbLine
10
-78.872230983481472
20
59.942059966916581
30
-1.8952886733369922e-05
11
-38.322863611502989
21
59.942059966916581
31
-1.8952886733369922e-05
0
LINE
5
202
100
AcDbEntity
8
0
100
AcDbLine
10
-38.322863611502989
20
59.942059966916581
30
-1.8952886733369922e-05
11
-26.828878227254656
21
75.79499319815298
31
-1.8952886733369922e-05
0
LINE
5
203
100
AcDbEntity
8
0
100
AcDbLine
10
-26.828878227254656
20
75.79499319815298
30
-1.8952886733369922e-05
11
-25.135841981715927
21
71.711788135400809
31
-1.8952886733369922e-05
0
LINE
5
204
100
AcDbEntity
8
0
100
AcDbLine
10
-25.135841981715927
20
71.711788135400809
30
-1.8952886733369922e-05
11
-37.186276435210921
21
55.8590738258426
31
-1.8952886733369922e-05
0
LINE
5
205
100
AcDbEntity
8
0
100
AcDbLine
10
-37.186276435210921
20
55.8590738258426
30
-1.8952886733369922e-05
11
-86.548264979880614
21
55.8590738258426
31
-1.8952886733369922e-05
0
LINE
5
206
100
AcDbEntity
8
0
100
AcDbLine
10
-86.548264979880614
20
55.8590738258426
30
-1.8952886733369922e-05
11
-46.583119801812849
21
110.98049228117041
31
-1.8952886733369922e-05
0
LINE
5
207
100
AcDbEntity
8
0
100
AcDbLine
10
-46.583119801812849
20
110.98049228117041
30
-1.8952886733369922e-05
11
-90.400837237503879
21
110.98049228117041
31
-1.8952886733369922e-05
0
LINE
5
208
100
AcDbEntity
8
0
100
AcDbLine
10
-70.325455624739874
20
140.61566349372356
30
-1.8952886733369922e-05
11
-65.247055418226296
21
140.61566349372359
31
-1.8952886733369922e-05
0
LINE
5
209
100
AcDbEntity
8
0
100
AcDbLine
10
-65.247055418226296
20
140.61566349372359
30
-1.8952886733369922e-05
11
-82.883481187960399
21
115.38750640599159
31
-1.8952886733369922e-05
0
SPLINE
5
210
100
AcDbEntity
8
0
100
AcDbSpline
70
0
71
3
72
8
73
4
74
0
42
0.000000001
43
0.0000000001
44
0.0000000001
40
0
40
0
40
0
40
0
40
0.9865897197921899
40
0.9865897197921899
40
0.9865897197921899
40
0.9865897197921899
10
-79.531521067189772
20
52.02686390814371
30
-1.8952886733369922e-05
10
-67.054826773948861
20
49.712203913316593
30
-1.8952886733369922e-05
10
-55.024650152293937
20
49.991455626198267
30
-1.8952886733369922e-05
10
-41.576224034330096
20
49.991455626198267
30
-1.8952886733369922e-05
0
LINE
5
211
100
AcDbEntity
8
0
100
AcDbLine
10
-79.531521067189772
20
52.02686390814371
30
-1.8952886733369922e-05
11
-36.043081029548958
21
52.02686390814371
31
-1.8952886733369922e-05
0
LINE
5
212
100
AcDbEntity
8
0
100
AcDbLine
10
-36.043081029548958
20
52.02686390814371
30
-1.8952886733369922e-05
11
-24.27418913127287
21
67.951510117224075
31
-1.8952886733369922e-05
0
LINE
5
213
100
AcDbEntity
8
0
100
AcDbLine
10
-24.27418913127287
20
67.951510117224075
30
-1.8952886733369922e-05
11
-22.655840498906521
21
65.237271859782282
31
-1.8952886733369922e-05
0
LINE
5
214
100
AcDbEntity
8
0
100
AcDbLine
10
-22.655840498906521
20
65.237271859782282
30
-1.8952886733369922e-05
11
-34.24494162222647
21
49.991455626198267
31
-1.8952886733369922e-05
0
LINE
5
215
100
AcDbEntity
8
0
100
AcDbLine
10
-34.24494162222647
20
49.991455626198267
30
-1.8952886733369922e-05
11
-41.576224034330131
21
49.991455626198302
31
-1.8952886733369922e-05
0
ARC
5
216
100
AcDbEntity
8
0
100
AcDbCircle
10
60.521450196364839
20
-60.65463709640742
30
-1.8952886733369922e-05
40
20.718071068562143
210
0
220
0
230
1
100
AcDbArc
50
90.000112070520657
51
269.99991121802083
0
LINE
5
217
100
AcDbEntity
8
0
100
AcDbLine
10
60.521409671826532
20
-39.936566027884908
30
-1.8952886733369922e-05
11
131.67339102657468
21
-39.954264152890921
31
-1.8952886733369922e-05
0
ARC
5
218
100
AcDbEntity
8
0
100
AcDbCircle
10
131.66811892498046
20
-60.672334550660203
30
-1.8952886733369922e-05
40
20.718071068561837
210
0
220
0
230
1
100
AcDbArc
50
-90.01457998540441
51
89.985420014596286
0
LINE
5
219
100
AcDbEntity
8
0
100
AcDbLine
10
131.66284682338599
20
-81.390404948429477
30
-1.8952886733369922e-05
11
60.52141809292948
21
-81.372708164944711
31
-1.8952886733369922e-05
0
CIRCLE
5
220
100
AcDbEntity
8
0
100
AcDbCircle
10
15.489001167626171
20
257.06679434768625
30
-1.8952886608469832e-05
40
1.6500000000000092
210
-1.2092061466900722e-16
220
-1.588987383710196e-30
230
1
0
CIRCLE
5
221
100
AcDbEntity
8
0
100
AcDbCircle
10
-23.110998832373859
20
257.06679434768625
30
-1.8952886612910724e-05
40
1.650000000000027
210
-1.2092061466900722e-16
220
-1.588987383710196e-30
230
1
0
CIRCLE
5
222
100
AcDbEntity
8
0
100
AcDbCircle
10
-149.94972737921319
20
74.518000219227289
30
-1.8952886733369922e-05
40
4.5000000000000036
210
-2.1494428702096813e-24
220
-1.5777218106422765e-30
230
1
0
CIRCLE
5
223
100
AcDbEntity
8
0
100
AcDbCircle
10
-178.71099929809577
20
53.016791534401086
30
-1.8952886733369922e-05
40
1.6499999999999848
210
-2.1494428702096813e-24
220
-1.5777218106422765e-30
230
1
0
CIRCLE
5
224
100
AcDbEntity
8
0
100
AcDbCircle
10
170.88900163334836
20
53.016791534401122
30
-1.8952886733369922e-05
40
1.6499999999999815
210
-2.1494428702096813e-24
220
-1.5777218106422765e-30
230
1
0
CIRCLE
5
225
100
AcDbEntity
8
0
100
AcDbCircle
10
170.88900163334836
20
-60.433208465575632
30
-1.8952886733369922e-05
40
1.649999999999997
210
-2.1494428702096813e-24
220
-1.5777218106422765e-30
230
1
0
CIRCLE
5
226
100
AcDbEntity
8
0
100
AcDbCircle
10
170.8890016333483
20
166.4667915343779
30
-1.8952886733369922e-05
40
1.6499999999999893
210
-2.1494428702096813e-24
220
-1.5777218106422765e-30
230
1
0
CIRCLE
5
227
100
AcDbEntity
8
0
100
AcDbCircle
10
-178.71099929809577
20
-60.433208465575667
30
-1.8952886733369922e-05
40
1.6499999999999848
210
-2.1494428702096813e-24
220
-1.5777218106422765e-30
230
1
0
CIRCLE
5
228
100
AcDbEntity
8
0
100
AcDbCircle
10
-178.71099929809577
20
166.46679153437788
30
-1.8952886733369922e-05
40
1.6499999999999848
210
-2.1494428702096813e-24
220
-1.5777218106422765e-30
230
1
0
CIRCLE
5
229
100
AcDbEntity
8
0
100
AcDbCircle
10
-82.710992463178059
20
206.54627678004405
30
-1.8952886733369922e-05
40
1.6499999999999848
210
-2.1494428702096813e-24
220
-1.5777218106422765e-30
230
1
0
CIRCLE
5
230
100
AcDbEntity
8
0
100
AcDbCircle
10
-123.71099883237378
20
396.3667943476861
30
-1.8952886733369922e-05
40
1.6499999999999848
210
-2.1494428702096813e-24
220
-1.5777218106422765e-30
230
1
0
CIRCLE
5
231
100
AcDbEntity
8
0
100
AcDbCircle
10
-3.9109988323737355
20
206.54627678004405
30
-1.8952886733369922e-05
40
1.6500000000000126
210
-2.1494428702096813e-24
220
-1.5777218106422765e-30
230
1
0
CIRCLE
5
232
100
AcDbEntity
8
0
100
AcDbCircle
10
-3.9109988323737355
20
296.54627678004408
30
-1.8952886733369922e-05
40
1.6500000000000126
210
-2.1494428702096813e-24
220
-1.5777218106422765e-30
230
1
0
CIRCLE
5
233
100
AcDbEntity
8
0
100
AcDbCircle
10
-3.9109988323736644
20
396.36679434768615
30
-1.8952886733369922e-05
40
1.6500000000000126
210
-2.1494428702096813e-24
220
-1.5777218106422765e-30
230
1
0
CIRCLE
5
234
100
AcDbEntity
8
0
100
AcDbCircle
10
115.88900116762629
20
396.36679434768615
30
-1.8952886733369922e-05
40
1.6499999999999848
210
-2.1494428702096813e-24
220
-1.5777218106422765e-30
230
1
0
CIRCLE
5
235
100
AcDbEntity
8
0
100
AcDbCircle
10
74.888994798430645
20
296.54627678004408
30
-1.8952886733369922e-05
40
1.6499999999999848
210
-2.1494428702096813e-24
220
-1.5777218106422765e-30
230
1
0
CIRCLE
5
236
100
AcDbEntity
8
0
100
AcDbCircle
10
74.888994798430645
20
206.54627678004405
30
-1.8952886733369922e-05
40
1.6499999999999848
210
-2.1494428702096813e-24
220
-1.5777218106422765e-30
230
1
0
CIRCLE
5
237
100
AcDbEntity
8
0
100
AcDbCircle
10
-82.710992463178059
20
296.54627678004408
30
-1.8952886733369922e-05
40
1.6499999999999848
210
-2.1494428702096813e-24
220
-1.5777218106422765e-30
230
1
0
LWPOLYLINE
5
238
100
AcDbEntity
8
0
100
AcDbPolyline
90
14
70
1
43
0.0
10
10.489001167626171
20
252.94179434768608
42
0.41421356237310542
10
11.489001167626149
20
253.94179434768608
10
11.489001167626167
20
260.19179434768608
42
0.41421356237309503
10
10.489001167626171
20
261.19179434768608
10
-0.8109988323738192
20
261.19179434768614
42
-0.41421356237308299
10
-1.8109988323738335
20
262.19179434768608
10
-1.8109988323738335
20
263.19179434768608
42
0.99999999999999989
10
-5.8109988323738193
20
263.19179434768608
10
-5.8109988323738033
20
262.19179434768608
42
-0.41421356237305795
10
-6.8109988323738335
20
261.19179434768608
10
-18.110998832373824
20
261.19179434768614
42
0.41421356237309503
10
-19.110998832373838
20
260.19179434768608
10
-19.110998832373824
20
253.94179434768608
42
0.41421356237310542
10
-18.110998832373824
20
252.94179434768608
0
CIRCLE
5
239
100
AcDbEntity
8
0
100
AcDbCircle
10
15.489001167626171
20
257.06679434768614
30
0
40
1.6500000000000092
210
-2.8530920880057527e-31
220
2.0025288078811175e-40
230
1
0
CIRCLE
5
240
100
AcDbEntity
8
0
100
AcDbCircle
10
-23.110998832373859
20
257.06679434768614
30
0
40
1.650000000000027
210
-2.8530920880057527e-31
220
2.0025288078811175e-40
230
1
0
CIRCLE
5
241
100
AcDbEntity
8
0
100
AcDbCircle
10
-149.94972737921319
20
74.518000219227218
30
0
40
4.5000000000000036
210
-2.8530920880057527e-31
220
2.0025288078811175e-40
230
1
0
CIRCLE
5
242
100
AcDbEntity
8
0
100
AcDbCircle
10
24.939001046332976
20
37.888133761439136
30
0
40
2.1500000000000128
210
-2.8530920880057527e-31
220
2.0025288078811175e-40
230
1
0
CIRCLE
5
243
100
AcDbEntity
8
0
100
AcDbCircle
10
-178.71099929809577
20
53.016791534401015
30
0
40
1.6499999999999848
210
-2.8530920880057527e-31
220
2.0025288078811175e-40
230
1
0
CIRCLE
5
244
100
AcDbEntity
8
0
100
AcDbCircle
10
170.88900163334836
20
53.016791534401051
30
0
40
1.6499999999999815
210
-2.8530920880057527e-31
220
2.0025288078811175e-40
230
1
0
CIRCLE
5
245
100
AcDbEntity
8
0
100
AcDbCircle
10
170.88900163334836
20
-60.433208465575667
30
0
40
1.649999999999997
210
-2.8530920880057527e-31
220
2.0025288078811175e-40
230
1
0
CIRCLE
5
246
100
AcDbEntity
8
0
100
AcDbCircle
10
170.8890016333483
20
166.46679153437782
30
0
40
1.6499999999999893
210
-2.8530920880057527e-31
220
2.0025288078811175e-40
230
1
0
CIRCLE
5
247
100
AcDbEntity
8
0
100
AcDbCircle
10
-178.71099929809577
20
-60.433208465575703
30
0
40
1.6499999999999848
210
-2.8530920880057527e-31
220
2.0025288078811175e-40
230
1
0
CIRCLE
5
248
100
AcDbEntity
8
0
100
AcDbCircle
10
-178.71099929809577
20
166.46679153437776
30
0
40
1.6499999999999848
210
-2.8530920880057527e-31
220
2.0025288078811175e-40
230
1
0
CIRCLE
5
249
100
AcDbEntity
8
0
100
AcDbCircle
10
-82.710992463178059
20
206.54627678004397
30
0
40
1.6499999999999848
210
-2.8530920880057527e-31
220
2.0025288078811175e-40
230
1
0
CIRCLE
5
250
100
AcDbEntity
8
0
100
AcDbCircle
10
-123.71099883237378
20
396.36679434768598
30
0
40
1.6499999999999848
210
-2.8530920880057527e-31
220
2.0025288078811175e-40
230
1
0
CIRCLE
5
251
100
AcDbEntity
8
0
100
AcDbCircle
10
-3.9109988323737355
20
206.54627678004397
30
0
40
1.6500000000000126
210
-2.8530920880057527e-31
220
2.0025288078811175e-40
230
1
0
CIRCLE
5
252
100
AcDbEntity
8
0
100
AcDbCircle
10
-3.9109988323737355
20
296.54627678004397
30
0
40
1.6500000000000126
210
-2.8530920880057527e-31
220
2.0025288078811175e-40
230
1
0
CIRCLE
5
253
100
AcDbEntity
8
0
100
AcDbCircle
10
-3.9109988323736644
20
396.36679434768604
30
0
40
1.6500000000000126
210
-2.8530920880057527e-31
220
2.0025288078811175e-40
230
1
0
CIRCLE
5
254
100
AcDbEntity
8
0
100
AcDbCircle
10
115.88900116762629
20
396.36679434768604
30
0
40
1.6499999999999848
210
-2.8530920880057527e-31
220
2.0025288078811175e-40
230
1
0
CIRCLE
5
255
100
AcDbEntity
8
0
100
AcDbCircle
10
74.888994798430645
20
296.54627678004397
30
0
40
1.6499999999999848
210
-2.8530920880057527e-31
220
2.0025288078811175e-40
230
1
0
CIRCLE
5
256
100
AcDbEntity
8
0
100
AcDbCircle
10
74.888994798430645
20
206.54627678004397
30
0
40
1.6499999999999848
210
-2.8530920880057527e-31
220
2.0025288078811175e-40
230
1
0
CIRCLE
5
257
100
AcDbEntity
8
0
100
AcDbCircle
10
-82.710992463178059
20
296.54627678004391
30
0
40
1.6499999999999848
210
-2.8530920880057527e-31
220
2.0025288078811175e-40
230
1
0
LWPOLYLINE
5
258
100
AcDbEntity
8
0
100
AcDbPolyline
90
4
70
1
43
0.0
10
60.521409671826532
20
-39.93656602788495
42
0.99999824719801711
10
60.521418092929466
20
-81.372708164944711
10
131.66284682338599
20
-81.39040494842952
42
0.99999999999999989
10
131.67339102657465
20
-39.95426415289095
0
LWPOLYLINE
5
259
100
AcDbEntity
8
0
100
AcDbPolyline
90
4
70
1
43
0.0
10
37.902529295986852
20
45.135773698660238
10
154.83448350948964
20
45.135773698660245
10
154.83448350948964
20
34.293269356309004
10
37.902529295986852
20
34.293269356309004
0
LWPOLYLINE
5
260
100
AcDbEntity
8
0
100
AcDbPolyline
90
16
70
1
43
0.0
10
160.88900116762628
20
306.66679153442203
10
160.88900116762628
20
406.36679434768604
10
-168.71099883237375
20
406.36679434768598
10
-168.71099883237375
20
306.66679153437775
10
-113.21099246317803
20
306.66679153437781
10
-107.7109924631781
20
301.16679153437781
10
-107.71099246317809
20
201.96679153437793
10
-113.21099246317829
20
196.46679153437782
10
-188.71099929809577
20
196.46679153437782
10
-188.71099929809574
20
-90.433208465575746
10
180.88900070190422
20
-90.433208465575703
10
180.88900070190425
20
196.46679153442187
10
105.38899612856977
20
196.46679153442182
10
99.888996128569772
20
201.9667915344219
10
99.888996128569758
20
301.16679153442215
10
105.38899612856972
20
306.66679153442203
0
ENDSEC
0
SECTION
2
OBJECTS
0
DICTIONARY
5
C
100
AcDbDictionary
3
ACAD_GROUP
350
D
3
ACAD_MLINESTYLE
350
17
0
DICTIONARY
5
D
100
AcDbDictionary
0
DICTIONARY
5
1A
330
C
100
AcDbDictionary
0
DICTIONARY
5
17
100
AcDbDictionary
0
ENDSEC
0
EOF
