0
SECTION
2
HEADER
9
$INSUNITS
70
4
9
$ACADVER
1
AC1014
9
$HANDSEED
5
FFFF
0
ENDSEC
0
SECTION
2
TABLES
0
TABLE
2
VPORT
5
8
100
AcDbSymbolTable
0
ENDTAB
0
TABLE
2
LTYPE
5
5
100
AcDbSymbolTable
0
LTYPE
5
14
100
AcDbSymbolTableRecord
100
AcDbLinetypeTableRecord
2
BYBLOCK
70
0
0
LTYPE
5
15
100
AcDbSymbolTableRecord
100
AcDbLinetypeTableRecord
2
BYLAYER
70
0
0
LTYPE
5
16
100
AcDbSymbolTableRecord
100
AcDbLinetypeTableRecord
2
DASHED
70
0
3
Dashed __ __ __ __ __ __ __ __ __ __ __ __ __ _
72
65
73
2
40
0.75
49
0.5
74
0
49
-0.25
74
0
0
ENDTAB
0
TABLE
2
LAYER
5
2
100
AcDbSymbolTable
70
2
0
LAYER
5
50
100
AcDbSymbolTableRecord
100
AcDbLayerTableRecord
2
0
70
0
62
7
6
CONTINUOUS
0
ENDTAB
0
TABLE
2
STYLE
5
3
100
AcDbSymbolTable
70
1
0
STYLE
5
11
100
AcDbSymbolTableRecord
100
AcDbTextStyleTableRecord
2
STANDARD
70
0
0
ENDTAB
0
TABLE
2
VIEW
5
6
100
AcDbSymbolTable
70
0
0
ENDTAB
0
TABLE
2
UCS
5
7
100
AcDbSymbolTable
70
0
0
ENDTAB
0
TABLE
2
APPID
5
9
100
AcDbSymbolTable
70
2
0
APPID
5
12
100
AcDbSymbolTableRecord
100
AcDbRegAppTableRecord
2
ACAD
70
0
0
ENDTAB
0
TABLE
2
DIMSTYLE
5
A
100
AcDbSymbolTable
70
1
0
ENDTAB
0
TABLE
2
BLOCK_RECORD
5
1
100
AcDbSymbolTable
70
1
0
BLOCK_RECORD
5
1F
100
AcDbSymbolTableRecord
100
AcDbBlockTableRecord
2
*MODEL_SPACE
0
BLOCK_RECORD
5
1B
100
AcDbSymbolTableRecord
100
AcDbBlockTableRecord
2
*PAPER_SPACE
0
ENDTAB
0
ENDSEC
0
SECTION
2
BLOCKS
0
BLOCK
5
20
100
AcDbEntity
100
AcDbBlockBegin
2
*MODEL_SPACE
0
ENDBLK
5
21
100
AcDbEntity
100
AcDbBlockEnd
0
BLOCK
5
1C
100
AcDbEntity
100
AcDbBlockBegin
2
*PAPER_SPACE
0
ENDBLK
5
1D
100
AcDbEntity
100
AcDbBlockEnd
0
ENDSEC
0
SECTION
2
ENTITIES
0
LWPOLYLINE
5
100
100
AcDbEntity
8
0
100
AcDbPolyline
90
20
70
1
43
0.0
10
-160.88900023611041
20
364.78931102252034
10
-160.88900023611041
20
345.78931102252142
42
0.41421356237309503
10
-159.88900023611038
20
344.78931102252142
10
167.71099976388973
20
344.78931102252147
42
0.41421356237309503
10
168.71099976388976
20
345.78931102252147
10
168.71099976388967
20
364.78931102252034
10
187.71099929809571
20
364.78931102252034
42
0.4142135623730846
10
188.71099929809571
20
365.78931102252034
10
188.7109992980956
20
763.38931237636734
42
0.41421356237313667
10
187.71099929809563
20
764.38931237636734
10
168.71099425903367
20
764.38931237636734
10
168.71099425903364
20
783.38930969238049
42
0.4142135623730534
10
167.71099425903367
20
784.38930969238027
10
-159.88900574096624
20
784.38930969238049
42
0.41421356237313667
10
-160.88900574096641
20
783.38930969238038
10
-160.88900574096641
20
764.38930969238243
10
-179.88900070190439
20
764.38930969238231
42
0.41421356237309503
10
-180.88900070190442
20
763.38930969238231
10
-180.88900070190437
20
365.78931102252034
42
0.41421356237309503
10
-179.88900070190431
20
364.78931102252034
0
CIRCLE
5
101
100
AcDbEntity
8
0
100
AcDbCircle
10
147.91099929817312
20
607.08930969405901
30
0
40
10.999999999999996
210
1.2325951644078309e-32
220
1.4904615961945529e-48
230
1
0
CIRCLE
5
102
100
AcDbEntity
8
0
100
AcDbCircle
10
-140.06984725119369
20
641.08930969569872
30
0
40
1.6500000000000403
210
2.4651903288156668e-32
220
-3.9443045261050582e-31
230
1
0
CIRCLE
5
103
100
AcDbEntity
8
0
100
AcDbCircle
10
-140.08900724314375
20
573.08930969408698
30
0
40
1.6500000000000403
210
2.4651903288156668e-32
220
-3.9443045261050582e-31
230
1
0
CIRCLE
5
104
100
AcDbEntity
8
0
100
AcDbCircle
10
147.91099929817304
20
573.08930969408698
30
0
40
1.6500000000000059
210
1.2325951644078309e-32
220
1.4904615961945529e-48
230
1
0
CIRCLE
5
105
100
AcDbEntity
8
0
100
AcDbCircle
10
147.89183930622295
20
641.08930969569883
30
0
40
1.6500000000000024
210
2.4651903288156619e-32
220
2.9809231923891059e-48
230
1
0
LWPOLYLINE
5
106
100
AcDbEntity
8
0
100
AcDbPolyline
90
12
70
1
43
0.0
10
-128.25332018343857
20
537.58930969411654
10
-132.87212233695553
20
529.58930969411654
42
-0.26794919243109477
10
-135.4701985483089
20
528.08930969411654
10
-144.70780285534286
20
528.08930969411665
42
-0.26794919243113263
10
-147.30587906669612
20
529.58930969411642
10
-151.92468122021316
20
537.58930969411654
42
-0.26794919243110427
10
-151.92468122021313
20
540.58930969411654
10
-147.30587906669612
20
548.58930969411642
42
-0.26794919243111692
10
-144.70780285534283
20
550.08930969411654
10
-135.47019854830882
20
550.08930969411631
42
-0.26794919243113263
10
-132.87212233695556
20
548.58930969411654
10
-128.25332018343869
20
540.58930969411654
42
-0.26794919243112403
0
LWPOLYLINE
5
107
100
AcDbEntity
8
0
100
AcDbPolyline
90
12
70
1
43
0.0
10
-128.2533201834386
20
673.58930969400899
10
-132.8721223369555
20
665.58930969400922
42
-0.26794919243114834
10
-135.4701985483089
20
664.0893096940091
10
-144.70780285534278
20
664.0893096940091
42
-0.26794919243113735
10
-147.30587906669612
20
665.58930969400899
10
-151.92468122021293
20
673.58930969400888
42
-0.2679491924311575
10
-151.92468122021299
20
676.58930969400888
10
-147.30587906669621
20
684.58930969400876
42
-0.26794919243115067
10
-144.70780285534278
20
686.08930969400888
10
-135.4701985483089
20
686.08930969400888
42
-0.26794919243113974
10
-132.87212233695556
20
684.58930969400899
10
-128.25332018343869
20
676.58930969400899
42
-0.26794919243114235
0
LWPOLYLINE
5
108
100
AcDbEntity
8
0
100
AcDbPolyline
90
12
70
1
43
0.0
10
136.03699879588544
20
676.58930969733842
10
140.65580094940253
20
684.58930969733854
42
-0.26794919243113108
10
143.25387716075585
20
686.08930969733865
10
152.49148146778975
20
686.08930969733842
42
-0.2679491924311162
10
155.08955767914307
20
684.58930969733842
10
159.70835983266005
20
676.58930969733865
42
-0.26794919243111537
10
159.70835983266005
20
673.58930969733842
10
155.08955767914307
20
665.58930969733854
42
-0.26794919243113974
10
152.4914814677897
20
664.08930969733865
10
143.25387716075576
20
664.08930969733865
42
-0.26794919243113668
10
140.65580094940248
20
665.58930969733854
10
136.03699879588538
20
673.58930969733831
42
-0.26794919243111071
0
LWPOLYLINE
5
109
100
AcDbEntity
8
0
100
AcDbPolyline
90
12
70
1
43
0.0
10
136.07531877978579
20
540.58930969411506
10
140.69412093330283
20
548.58930969411506
42
-0.2679491924311232
10
143.29219714465611
20
550.08930969411506
10
152.52980145168974
20
550.08930969411506
42
-0.26794919243112403
10
155.12787766304305
20
548.58930969411506
10
159.7466798165602
20
540.58930969411472
42
-0.26794919243112891
10
159.74667981656023
20
537.58930969411472
10
155.12787766304339
20
529.58930969411506
42
-0.26794919243112403
10
152.5298014516901
20
528.08930969411506
10
143.29219714465614
20
528.08930969411506
42
-0.2679491924311358
10
140.69412093330283
20
529.58930969411495
10
136.07531877978582
20
537.58930969411506
42
-0.26794919243113596
0
LWPOLYLINE
5
110
100
AcDbEntity
8
0
100
AcDbPolyline
90
4
70
1
43
0.0
10
-101.62249837120164
20
350.90854655339086
10
-141.60349837466697
20
350.90854655339086
10
-141.60349837466697
20
357.06159691073208
10
-101.62249841384661
20
357.06159687410161
0
LWPOLYLINE
5
111
100
AcDbEntity
8
0
100
AcDbPolyline
90
4
70
1
43
0.0
10
-50.5744935277216
20
350.90854655339086
10
-82.555493527721609
20
350.90854655339086
10
-82.555493527721609
20
357.06159691027403
10
-50.5744935277216
20
357.06159691027403
0
CIRCLE
5
112
100
AcDbEntity
8
0
100
AcDbCircle
10
118.71099976388973
20
354.78931403471074
30
0
40
1.5999999999999626
210
2.4651903288156668e-32
220
-3.9443045261050582e-31
230
1
0
CIRCLE
5
113
100
AcDbEntity
8
0
100
AcDbCircle
10
178.71099818957433
20
414.78931560902583
30
0
40
1.599999999999933
210
1.2325951644078356e-32
220
-3.9443045261050582e-31
230
1
0
CIRCLE
5
114
100
AcDbEntity
8
0
100
AcDbCircle
10
178.71099425903361
20
564.58931494395688
30
0
40
1.5999999999999839
210
3.6977854932234934e-32
220
4.4713847885836594e-48
230
1
0
CIRCLE
5
115
100
AcDbEntity
8
0
100
AcDbCircle
10
178.71099032849293
20
714.38931427888792
30
0
40
1.5999999999999839
210
3.6977854932234934e-32
220
4.4713847885836594e-48
230
1
0
CIRCLE
5
116
100
AcDbEntity
8
0
100
AcDbCircle
10
118.71099425903353
20
774.38931270457249
30
0
40
1.5999999999999559
210
2.4651903288156668e-32
220
-3.9443045261050582e-31
230
1
0
CIRCLE
5
117
100
AcDbEntity
8
0
100
AcDbCircle
10
3.9109979954088203
20
489.58931035745138
30
0
40
1.5999999999999903
210
2.4651903288156668e-32
220
-3.944304526105059e-31
230
1
0
CIRCLE
5
118
100
AcDbEntity
8
0
100
AcDbCircle
10
3.9109997638896843
20
354.78931102252034
30
0
40
1.5999999999999903
210
2.4651903288156668e-32
220
-3.944304526105059e-31
230
1
0
CIRCLE
5
119
100
AcDbEntity
8
0
100
AcDbCircle
10
-170.88900023611041
20
564.58931035745127
30
0
40
1.5999999999999348
210
1.2325951644078356e-32
220
-3.9443045261050582e-31
230
1
0
CIRCLE
5
120
100
AcDbEntity
8
0
100
AcDbCircle
10
3.9109960275146349
20
639.58931035745127
30
0
40
1.5999999999999903
210
2.4651903288156668e-32
220
-3.944304526105059e-31
230
1
0
CIRCLE
5
121
100
AcDbEntity
8
0
100
AcDbCircle
10
-170.88900023611041
20
414.78931102252028
30
0
40
1.5999999999999903
210
2.4651903288156668e-32
220
-3.944304526105059e-31
230
1
0
CIRCLE
5
122
100
AcDbEntity
8
0
100
AcDbCircle
10
-170.88900023611046
20
714.38930969238243
30
0
40
1.5999999999999348
210
1.2325951644078356e-32
220
-3.9443045261050582e-31
230
1
0
CIRCLE
5
123
100
AcDbEntity
8
0
100
AcDbCircle
10
-110.88900574096634
20
774.38930969238243
30
0
40
1.5999999999999348
210
1.2325951644078356e-32
220
-3.9443045261050582e-31
230
1
0
CIRCLE
5
124
100
AcDbEntity
8
0
100
AcDbCircle
10
3.9109942590336289
20
774.38930969238243
30
0
40
1.5999999999999903
210
2.4651903288156668e-32
220
-3.944304526105059e-31
230
1
0
CIRCLE
5
125
100
AcDbEntity
8
0
100
AcDbCircle
10
-139.867446605005
20
607.08930969073469
30
0
40
11.000000000000012
210
1.2325951644078309e-32
220
1.4904615961945526e-48
230
1
0
ENDSEC
0
SECTION
2
OBJECTS
0
DICTIONARY
5
C
100
AcDbDictionary
3
ACAD_GROUP
350
D
3
ACAD_MLINESTYLE
350
17
0
DICTIONARY
5
D
100
AcDbDictionary
0
DICTIONARY
5
1A
330
C
100
AcDbDictionary
0
DICTIONARY
5
17
100
AcDbDictionary
0
ENDSEC
0
EOF
