0
SECTION
2
HEADER
9
$INSUNITS
70
4
9
$ACADVER
1
AC1014
9
$HANDSEED
5
FFFF
0
ENDSEC
0
SECTION
2
TABLES
0
TABLE
2
VPORT
5
8
100
AcDbSymbolTable
0
ENDTAB
0
TABLE
2
LTYPE
5
5
100
AcDbSymbolTable
0
LTYPE
5
14
100
AcDbSymbolTableRecord
100
AcDbLinetypeTableRecord
2
BYBLOCK
70
0
0
LTYPE
5
15
100
AcDbSymbolTableRecord
100
AcDbLinetypeTableRecord
2
BYLAYER
70
0
0
ENDTAB
0
TABLE
2
LAYER
5
2
100
AcDbSymbolTable
70
2
0
LAYER
5
50
100
AcDbSymbolTableRecord
100
AcDbLayerTableRecord
2
0
70
0
6
CONTINUOUS
0
ENDTAB
0
TABLE
2
STYLE
5
3
100
AcDbSymbolTable
70
1
0
STYLE
5
11
100
AcDbSymbolTableRecord
100
AcDbTextStyleTableRecord
2
STANDARD
70
0
0
ENDTAB
0
TABLE
2
VIEW
5
6
100
AcDbSymbolTable
70
0
0
ENDTAB
0
TABLE
2
UCS
5
7
100
AcDbSymbolTable
70
0
0
ENDTAB
0
TABLE
2
APPID
5
9
100
AcDbSymbolTable
70
2
0
APPID
5
12
100
AcDbSymbolTableRecord
100
AcDbRegAppTableRecord
2
ACAD
70
0
0
ENDTAB
0
TABLE
2
DIMSTYLE
5
A
100
AcDbSymbolTable
70
1
0
ENDTAB
0
TABLE
2
BLOCK_RECORD
5
1
100
AcDbSymbolTable
70
1
0
BLOCK_RECORD
5
1F
100
AcDbSymbolTableRecord
100
AcDbBlockTableRecord
2
*MODEL_SPACE
0
BLOCK_RECORD
5
1B
100
AcDbSymbolTableRecord
100
AcDbBlockTableRecord
2
*PAPER_SPACE
0
ENDTAB
0
ENDSEC
0
SECTION
2
BLOCKS
0
BLOCK
5
20
100
AcDbEntity
100
AcDbBlockBegin
2
*MODEL_SPACE
0
ENDBLK
5
21
100
AcDbEntity
100
AcDbBlockEnd
0
BLOCK
5
1C
100
AcDbEntity
100
AcDbBlockBegin
2
*PAPER_SPACE
0
ENDBLK
5
1D
100
AcDbEntity
100
AcDbBlockEnd
0
ENDSEC
0
SECTION
2
ENTITIES
0
LINE
5
100
100
AcDbEntity
8
0
100
AcDbLine
10
188.91099929809573
20
344.58930833852389
30
-1.5999495814877918e-05
11
188.9109992980957
21
784.58930700838823
31
-1.5999495814877918e-05
0
LINE
5
101
100
AcDbEntity
8
0
100
AcDbLine
10
188.9109992980957
20
784.58930700838823
30
-1.5999495814877918e-05
11
-181.08899566283239
21
784.58930700838823
31
-1.5999495814877918e-05
0
LINE
5
102
100
AcDbEntity
8
0
100
AcDbLine
10
-181.08899566283239
20
784.58930700838823
30
-1.5999495814877918e-05
11
-181.0889956628323
21
344.58930833852384
31
-1.5999495814877918e-05
0
LINE
5
103
100
AcDbEntity
8
0
100
AcDbLine
10
-181.0889956628323
20
344.58930833852384
30
-1.5999495814877918e-05
11
188.91099929809573
21
344.58930833852389
31
-1.5999495814877918e-05
0
CIRCLE
5
104
100
AcDbEntity
8
0
100
AcDbCircle
10
-126.0889956627604
20
774.58930969238008
30
-1.5999495814877918e-05
40
1.6499999999999848
210
-2.1494131664785599e-24
220
3.6274937267194125e-23
230
1
0
CIRCLE
5
105
100
AcDbEntity
8
0
100
AcDbCircle
10
-126.08899566276037
20
354.68930966865713
30
-1.5999495814877918e-05
40
1.6499999999999848
210
-2.1494131664785599e-24
220
3.6274937267194125e-23
230
1
0
CIRCLE
5
106
100
AcDbEntity
8
0
100
AcDbCircle
10
-171.60861594418134
20
570.81201161844785
30
-1.5999495814877918e-05
40
1.6499999999999848
210
-2.1494131664785599e-24
220
3.6274937267194125e-23
230
1
0
CIRCLE
5
107
100
AcDbEntity
8
0
100
AcDbCircle
10
133.91099929809565
20
774.58930969238031
30
-1.5999495814877918e-05
40
1.6499999999999848
210
-2.1494131664785599e-24
220
3.6274937267194125e-23
230
1
0
CIRCLE
5
108
100
AcDbEntity
8
0
100
AcDbCircle
10
178.91100433724571
20
399.58930969238418
30
-1.5999495814877918e-05
40
1.6499999999999917
210
-2.1494131664785599e-24
220
3.6274937267194125e-23
230
1
0
CIRCLE
5
109
100
AcDbEntity
8
0
100
AcDbCircle
10
178.91100433724557
20
729.58930969237497
30
-1.5999495814877918e-05
40
1.6499999999999884
210
-2.1494131664785599e-24
220
3.6274937267194125e-23
230
1
0
CIRCLE
5
110
100
AcDbEntity
8
0
100
AcDbCircle
10
179.43061957951664
20
570.81201161844797
30
-1.5999495814877918e-05
40
1.6499999999999848
210
-2.1494131664785599e-24
220
3.6274937267194125e-23
230
1
0
CIRCLE
5
111
100
AcDbEntity
8
0
100
AcDbCircle
10
133.91099929809579
20
354.6893096686573
30
-1.5999495814877918e-05
40
1.6499999999999917
210
-2.1494131664785599e-24
220
3.6274937267194125e-23
230
1
0
CIRCLE
5
112
100
AcDbEntity
8
0
100
AcDbCircle
10
-171.08900070191029
20
729.58930969237497
30
-1.5999495814877918e-05
40
1.6499999999999848
210
-2.1494131664785599e-24
220
3.6274937267194125e-23
230
1
0
CIRCLE
5
113
100
AcDbEntity
8
0
100
AcDbCircle
10
-171.08900070191024
20
399.58930969238401
30
-1.5999495814877918e-05
40
1.6499999999999848
210
-2.1494131664785599e-24
220
3.6274937267194125e-23
230
1
0
CIRCLE
5
114
100
AcDbEntity
8
0
100
AcDbCircle
10
3.9110018176677031
20
354.68930966865719
30
-1.5999495814877918e-05
40
1.6500000000000126
210
-2.1494131664785599e-24
220
3.6274937267194125e-23
230
1
0
CIRCLE
5
115
100
AcDbEntity
8
0
100
AcDbCircle
10
3.9110018176675965
20
774.58930969238031
30
-1.5999495814877918e-05
40
1.6500000000000126
210
-2.1494131664785599e-24
220
3.6274937267194125e-23
230
1
0
CIRCLE
5
116
100
AcDbEntity
8
0
100
AcDbCircle
10
178.91100433724557
20
729.58930969237497
30
0
40
1.6499999999999884
210
-7.6420899752475137e-31
220
-5.8774718465200575e-39
230
1
0
CIRCLE
5
117
100
AcDbEntity
8
0
100
AcDbCircle
10
179.43061957951664
20
570.81201161844797
30
0
40
1.6499999999999848
210
-7.6420899752475137e-31
220
-5.8774718465200575e-39
230
1
0
CIRCLE
5
118
100
AcDbEntity
8
0
100
AcDbCircle
10
178.91100433724571
20
399.58930969238423
30
0
40
1.6499999999999917
210
-7.6420899752475137e-31
220
-5.8774718465200575e-39
230
1
0
CIRCLE
5
119
100
AcDbEntity
8
0
100
AcDbCircle
10
133.91099929809579
20
354.68930966865736
30
0
40
1.6499999999999917
210
-7.6420899752475137e-31
220
-5.8774718465200575e-39
230
1
0
CIRCLE
5
120
100
AcDbEntity
8
0
100
AcDbCircle
10
133.91099929809565
20
774.58930969238031
30
0
40
1.6499999999999848
210
-7.6420899752475137e-31
220
-5.8774718465200575e-39
230
1
0
CIRCLE
5
121
100
AcDbEntity
8
0
100
AcDbCircle
10
-171.08900070191029
20
729.58930969237497
30
0
40
1.6499999999999848
210
-7.6420899752475137e-31
220
-5.8774718465200575e-39
230
1
0
CIRCLE
5
122
100
AcDbEntity
8
0
100
AcDbCircle
10
-171.60861594418134
20
570.81201161844797
30
0
40
1.6499999999999848
210
-7.6420899752475137e-31
220
-5.8774718465200575e-39
230
1
0
CIRCLE
5
123
100
AcDbEntity
8
0
100
AcDbCircle
10
-171.08900070191024
20
399.58930969238406
30
0
40
1.6499999999999848
210
-7.6420899752475137e-31
220
-5.8774718465200575e-39
230
1
0
CIRCLE
5
124
100
AcDbEntity
8
0
100
AcDbCircle
10
-126.08899566276037
20
354.68930966865719
30
0
40
1.6499999999999848
210
-7.6420899752475137e-31
220
-5.8774718465200575e-39
230
1
0
CIRCLE
5
125
100
AcDbEntity
8
0
100
AcDbCircle
10
3.9110018176677031
20
354.6893096686573
30
0
40
1.6500000000000126
210
-7.6420899752475137e-31
220
-5.8774718465200575e-39
230
1
0
CIRCLE
5
126
100
AcDbEntity
8
0
100
AcDbCircle
10
-126.0889956627604
20
774.58930969238008
30
0
40
1.6499999999999848
210
-7.6420899752475137e-31
220
-5.8774718465200575e-39
230
1
0
CIRCLE
5
127
100
AcDbEntity
8
0
100
AcDbCircle
10
3.9110018176675965
20
774.58930969238031
30
0
40
1.6500000000000126
210
-7.6420899752475137e-31
220
-5.8774718465200575e-39
230
1
0
LWPOLYLINE
5
128
100
AcDbEntity
8
0
100
AcDbPolyline
90
4
70
1
43
0.0
10
188.91099929809573
20
344.58930833852401
10
188.9109992980957
20
784.58930700838823
10
-181.08899566283239
20
784.58930700838823
10
-181.0889956628323
20
344.58930833852389
0
ENDSEC
0
SECTION
2
OBJECTS
0
DICTIONARY
5
C
100
AcDbDictionary
3
ACAD_GROUP
350
D
3
ACAD_MLINESTYLE
350
17
0
DICTIONARY
5
D
100
AcDbDictionary
0
DICTIONARY
5
1A
330
C
100
AcDbDictionary
0
DICTIONARY
5
17
100
AcDbDictionary
0
ENDSEC
0
EOF
