0
SECTION
2
HEADER
9
$INSUNITS
70
4
9
$ACADVER
1
AC1014
9
$HANDSEED
5
FFFF
0
ENDSEC
0
SECTION
2
TABLES
0
TABLE
2
VPORT
5
8
100
AcDbSymbolTable
0
ENDTAB
0
TABLE
2
LTYPE
5
5
100
AcDbSymbolTable
0
LTYPE
5
14
100
AcDbSymbolTableRecord
100
AcDbLinetypeTableRecord
2
BYBLOCK
70
0
0
LTYPE
5
15
100
AcDbSymbolTableRecord
100
AcDbLinetypeTableRecord
2
BYLAYER
70
0
0
ENDTAB
0
TABLE
2
LAYER
5
2
100
AcDbSymbolTable
70
2
0
LAYER
5
50
100
AcDbSymbolTableRecord
100
AcDbLayerTableRecord
2
0
70
0
6
CONTINUOUS
0
ENDTAB
0
TABLE
2
STYLE
5
3
100
AcDbSymbolTable
70
1
0
STYLE
5
11
100
AcDbSymbolTableRecord
100
AcDbTextStyleTableRecord
2
STANDARD
70
0
0
ENDTAB
0
TABLE
2
VIEW
5
6
100
AcDbSymbolTable
70
0
0
ENDTAB
0
TABLE
2
UCS
5
7
100
AcDbSymbolTable
70
0
0
ENDTAB
0
TABLE
2
APPID
5
9
100
AcDbSymbolTable
70
2
0
APPID
5
12
100
AcDbSymbolTableRecord
100
AcDbRegAppTableRecord
2
ACAD
70
0
0
ENDTAB
0
TABLE
2
DIMSTYLE
5
A
100
AcDbSymbolTable
70
1
0
ENDTAB
0
TABLE
2
BLOCK_RECORD
5
1
100
AcDbSymbolTable
70
1
0
BLOCK_RECORD
5
1F
100
AcDbSymbolTableRecord
100
AcDbBlockTableRecord
2
*MODEL_SPACE
0
BLOCK_RECORD
5
1B
100
AcDbSymbolTableRecord
100
AcDbBlockTableRecord
2
*PAPER_SPACE
0
ENDTAB
0
ENDSEC
0
SECTION
2
BLOCKS
0
BLOCK
5
20
100
AcDbEntity
100
AcDbBlockBegin
2
*MODEL_SPACE
0
ENDBLK
5
21
100
AcDbEntity
100
AcDbBlockEnd
0
BLOCK
5
1C
100
AcDbEntity
100
AcDbBlockBegin
2
*PAPER_SPACE
0
ENDBLK
5
1D
100
AcDbEntity
100
AcDbBlockEnd
0
ENDSEC
0
SECTION
2
ENTITIES
0
LWPOLYLINE
5
100
100
AcDbEntity
8
0
100
AcDbPolyline
90
20
70
1
43
0.0
10
-160.88900023611041
20
364.78927287554768
10
-160.88900023611041
20
345.78927287554876
42
0.41421356237309503
10
-159.88900023611038
20
344.78927287554876
10
167.71099976388973
20
344.78927287554882
42
0.41421356237309503
10
168.71099976388973
20
345.78927287554882
10
168.71099976388973
20
364.78927287554768
10
187.71099929809569
20
364.78927287554774
42
0.41421356237309503
10
188.71099929809571
20
365.78927287554768
10
188.7109992980956
20
763.38927422939491
42
0.41421356237309503
10
187.71099929809563
20
764.38927422939491
10
168.71099425903364
20
764.38927422939491
10
168.71099425903364
20
783.38927154540784
42
0.41421356237309503
10
167.71099425903367
20
784.38927154540795
10
-159.88900574096624
20
784.38927154540784
42
0.41421356237313667
10
-160.88900574096641
20
783.38927154540784
10
-160.88900574096641
20
764.38927154540977
10
-179.88900070190439
20
764.38927154540977
42
0.41421356237309503
10
-180.88900070190442
20
763.38927154540988
10
-180.88900070190434
20
365.78927287554762
42
0.41421356237307422
10
-179.88900070190431
20
364.78927287554768
0
LWPOLYLINE
5
101
100
AcDbEntity
8
0
100
AcDbPolyline
90
12
70
1
43
0.0
10
-128.25332018343857
20
537.58927154714388
10
-132.87212233695553
20
529.58927154714388
42
-0.26794919243111764
10
-135.47019854830887
20
528.08927154714388
10
-144.70780285534283
20
528.08927154714399
42
-0.26794919243111764
10
-147.30587906669612
20
529.58927154714388
10
-151.92468122021322
20
537.58927154714388
42
-0.26794919243112097
10
-151.92468122021319
20
540.58927154714399
10
-147.30587906669609
20
548.58927154714388
42
-0.26794919243112081
10
-144.70780285534283
20
550.08927154714388
10
-135.47019854830887
20
550.08927154714388
42
-0.26794919243111764
10
-132.87212233695556
20
548.58927154714388
10
-128.25332018343855
20
540.58927154714388
42
-0.26794919243112725
0
LWPOLYLINE
5
102
100
AcDbEntity
8
0
100
AcDbPolyline
90
12
70
1
43
0.0
10
-128.2533201834386
20
673.58927154703633
10
-132.87212233695558
20
665.58927154703633
42
-0.26794919243111764
10
-135.47019854830887
20
664.08927154703645
10
-144.70780285534283
20
664.08927154703645
42
-0.26794919243111764
10
-147.30587906669612
20
665.58927154703633
10
-151.92468122021307
20
673.58927154703622
42
-0.26794919243111548
10
-151.92468122021302
20
676.58927154703633
10
-147.30587906669615
20
684.58927154703611
42
-0.26794919243112869
10
-144.70780285534283
20
686.08927154703622
10
-135.47019854830887
20
686.08927154703622
42
-0.26794919243112869
10
-132.87212233695556
20
684.58927154703611
10
-128.25332018343866
20
676.58927154703622
42
-0.26794919243111859
0
LWPOLYLINE
5
103
100
AcDbEntity
8
0
100
AcDbPolyline
90
12
70
1
43
0.0
10
136.03699879588544
20
676.58927155036599
10
140.65580094940239
20
684.58927155036599
42
-0.26794919243111764
10
143.25387716075579
20
686.08927155036611
10
152.49148146778978
20
686.08927155036599
42
-0.26794919243111848
10
155.08955767914307
20
684.58927155036599
10
159.70835983266002
20
676.58927155036577
42
-0.26794919243112097
10
159.70835983266005
20
673.58927155036599
10
155.08955767914307
20
665.58927155036599
42
-0.26794919243112869
10
152.49148146778975
20
664.08927155036599
10
143.25387716075576
20
664.08927155036599
42
-0.26794919243112952
10
140.65580094940245
20
665.58927155036599
10
136.03699879588544
20
673.58927155036577
42
-0.26794919243113191
0
LWPOLYLINE
5
104
100
AcDbEntity
8
0
100
AcDbPolyline
90
12
70
1
43
0.0
10
136.07531877978579
20
540.5892715471424
10
140.6941209333028
20
548.5892715471424
42
-0.26794919243112869
10
143.29219714465611
20
550.0892715471424
10
152.52980145168974
20
550.0892715471424
42
-0.26794919243112952
10
155.12787766304305
20
548.5892715471424
10
159.74667981656017
20
540.58927154714206
42
-0.26794919243112097
10
159.74667981656023
20
537.58927154714218
10
155.12787766304339
20
529.5892715471424
42
-0.26794919243112403
10
152.52980145169008
20
528.0892715471424
10
143.29219714465614
20
528.0892715471424
42
-0.2679491924311232
10
140.69412093330283
20
529.5892715471424
10
136.07531877978579
20
537.5892715471424
42
-0.26794919243112025
0
LWPOLYLINE
5
105
100
AcDbEntity
8
0
100
AcDbPolyline
90
4
70
1
43
0.0
10
-101.62249837120164
20
350.90850840641821
10
-141.60349837466697
20
350.90850840641821
10
-141.60349837466697
20
357.06155876375942
10
-101.62249841384661
20
357.06155872712895
0
LWPOLYLINE
5
106
100
AcDbEntity
8
0
100
AcDbPolyline
90
4
70
1
43
0.0
10
-50.5744935277216
20
350.90850840641821
10
-82.555493527721609
20
350.90850840641821
10
-82.555493527721609
20
357.06155876330138
10
-50.5744935277216
20
357.06155876330138
0
CIRCLE
5
107
100
AcDbEntity
8
0
100
AcDbCircle
10
147.91099929817312
20
607.08927154708647
30
-3.6494933186581591e-06
40
10.999999999999996
210
-2.1494143744218166e-24
220
1.5777218101821152e-30
230
1
0
CIRCLE
5
108
100
AcDbEntity
8
0
100
AcDbCircle
10
-140.06984725119369
20
641.08927154872617
30
-3.6494933186581591e-06
40
1.6500000000000403
210
-2.1494143744218166e-24
220
1.5777218101821152e-30
230
1
0
CIRCLE
5
109
100
AcDbEntity
8
0
100
AcDbCircle
10
-140.08900724314375
20
573.08927154711444
30
-3.6494933186581591e-06
40
1.6500000000000403
210
-2.1494143744218166e-24
220
1.5777218101821152e-30
230
1
0
CIRCLE
5
110
100
AcDbEntity
8
0
100
AcDbCircle
10
147.91099929817304
20
573.08927154711444
30
-3.6494933186581591e-06
40
1.6500000000000059
210
-2.1494143744218166e-24
220
1.5777218101821152e-30
230
1
0
CIRCLE
5
111
100
AcDbEntity
8
0
100
AcDbCircle
10
147.89183930622295
20
641.08927154872617
30
-3.6494933186581591e-06
40
1.6500000000000024
210
-2.1494143744218166e-24
220
1.5777218101821152e-30
230
1
0
CIRCLE
5
112
100
AcDbEntity
8
0
100
AcDbCircle
10
118.71099976388973
20
354.78927588773809
30
-3.6494933186581591e-06
40
1.5999999999999626
210
-2.1494143744218166e-24
220
1.5777218101821152e-30
230
1
0
CIRCLE
5
113
100
AcDbEntity
8
0
100
AcDbCircle
10
178.71099818957433
20
414.78927746205324
30
-3.6494933186581591e-06
40
1.599999999999933
210
-2.1494143744218166e-24
220
1.5777218101821152e-30
230
1
0
CIRCLE
5
114
100
AcDbEntity
8
0
100
AcDbCircle
10
178.71099425903361
20
564.58927679698434
30
-3.6494933186581591e-06
40
1.5999999999999841
210
-2.1494143744218166e-24
220
1.5777218101821152e-30
230
1
0
CIRCLE
5
115
100
AcDbEntity
8
0
100
AcDbCircle
10
178.71099032849293
20
714.38927613191527
30
-3.6494933186581591e-06
40
1.5999999999999841
210
-2.1494143744218166e-24
220
1.5777218101821152e-30
230
1
0
CIRCLE
5
116
100
AcDbEntity
8
0
100
AcDbCircle
10
118.71099425903353
20
774.38927455759995
30
-3.6494933186581591e-06
40
1.5999999999999559
210
-2.1494143744218166e-24
220
1.5777218101821152e-30
230
1
0
CIRCLE
5
117
100
AcDbEntity
8
0
100
AcDbCircle
10
3.9109979954088203
20
489.58927221047878
30
-3.6494933186581591e-06
40
1.5999999999999903
210
-2.1494143744218166e-24
220
1.5777218101821152e-30
230
1
0
CIRCLE
5
118
100
AcDbEntity
8
0
100
AcDbCircle
10
3.9109997638896843
20
354.78927287554768
30
-3.6494933186581591e-06
40
1.5999999999999903
210
-2.1494143744218166e-24
220
1.5777218101821152e-30
230
1
0
CIRCLE
5
119
100
AcDbEntity
8
0
100
AcDbCircle
10
-170.88900023611041
20
564.58927221047873
30
-3.6494933186581591e-06
40
1.5999999999999348
210
-2.1494143744218166e-24
220
1.5777218101821152e-30
230
1
0
CIRCLE
5
120
100
AcDbEntity
8
0
100
AcDbCircle
10
3.9109960275146349
20
639.58927221047873
30
-3.6494933186581591e-06
40
1.5999999999999903
210
-2.1494143744218166e-24
220
1.5777218101821152e-30
230
1
0
CIRCLE
5
121
100
AcDbEntity
8
0
100
AcDbCircle
10
-170.88900023611041
20
414.78927287554768
30
-3.6494933186581591e-06
40
1.5999999999999903
210
-2.1494143744218166e-24
220
1.5777218101821152e-30
230
1
0
CIRCLE
5
122
100
AcDbEntity
8
0
100
AcDbCircle
10
-170.88900023611046
20
714.38927154540977
30
-3.6494933186581591e-06
40
1.5999999999999348
210
-2.1494143744218166e-24
220
1.5777218101821152e-30
230
1
0
CIRCLE
5
123
100
AcDbEntity
8
0
100
AcDbCircle
10
-110.88900574096634
20
774.38927154540988
30
-3.6494933186581591e-06
40
1.5999999999999348
210
-2.1494143744218166e-24
220
1.5777218101821152e-30
230
1
0
CIRCLE
5
124
100
AcDbEntity
8
0
100
AcDbCircle
10
3.9109942590336289
20
774.38927154540988
30
-3.6494933186581591e-06
40
1.5999999999999903
210
-2.1494143744218166e-24
220
1.5777218101821152e-30
230
1
0
CIRCLE
5
125
100
AcDbEntity
8
0
100
AcDbCircle
10
-139.867446605005
20
607.08927154376215
30
-3.6494933186581591e-06
40
11.000000000000012
210
-2.1494143744218166e-24
220
1.5777218101821152e-30
230
1
0
LWPOLYLINE
5
126
100
AcDbEntity
8
0
100
AcDbPolyline
90
12
70
1
43
0.0
10
159.74667981656023
20
537.58927154714195
42
0.26794919243112103
10
159.74667981656023
20
540.58927154714195
10
155.12787766304305
20
548.58927154714229
42
0.26794919243112397
10
152.52980145168974
20
550.08927154714218
10
143.29219714465611
20
550.08927154714229
42
0.26794919243112397
10
140.6941209333028
20
548.58927154714229
10
136.07531877978582
20
540.58927154714229
42
0.26794919243112725
10
136.07531877978582
20
537.58927154714218
10
140.69412093330283
20
529.58927154714229
42
0.2679491924311232
10
143.29219714465614
20
528.08927154714229
10
152.52980145169008
20
528.08927154714229
42
0.2679491924311232
10
155.12787766304339
20
529.58927154714229
0
LWPOLYLINE
5
127
100
AcDbEntity
8
0
100
AcDbPolyline
90
12
70
1
43
0.0
10
159.70835983266005
20
673.58927155036565
42
0.26794919243112097
10
159.70835983266008
20
676.58927155036565
10
155.08955767914307
20
684.58927155036565
42
0.26794919243112869
10
152.49148146778975
20
686.08927155036565
10
143.25387716075579
20
686.08927155036577
42
0.26794919243112003
10
140.65580094940248
20
684.58927155036577
10
136.03699879588544
20
676.58927155036565
42
0.26794919243111942
10
136.03699879588544
20
673.58927155036565
10
140.65580094940245
20
665.58927155036577
42
0.26794919243111848
10
143.25387716075576
20
664.08927155036577
10
152.49148146778975
20
664.08927155036565
42
0.2679491924311177
10
155.08955767914304
20
665.58927155036577
0
LWPOLYLINE
5
128
100
AcDbEntity
8
0
100
AcDbPolyline
90
12
70
1
43
0.0
10
-128.2533201834386
20
673.58927154703622
42
0.2679491924311202
10
-128.25332018343863
20
676.58927154703622
10
-132.87212233695556
20
684.58927154703599
42
0.26794919243112869
10
-135.47019854830887
20
686.08927154703611
10
-144.70780285534278
20
686.08927154703588
42
0.26794919243112081
10
-147.30587906669612
20
684.58927154703611
10
-151.92468122021302
20
676.58927154703622
42
0.26794919243111542
10
-151.92468122021302
20
673.58927154703622
10
-147.30587906669612
20
665.58927154703633
42
0.26794919243112869
10
-144.70780285534283
20
664.08927154703633
10
-135.4701985483089
20
664.08927154703633
42
0.26794919243112081
10
-132.87212233695556
20
665.58927154703622
0
LWPOLYLINE
5
129
100
AcDbEntity
8
0
100
AcDbPolyline
90
12
70
1
43
0.0
10
-128.25332018343857
20
537.58927154714365
42
0.26794919243112569
10
-128.25332018343855
20
540.58927154714377
10
-132.87212233695556
20
548.58927154714365
42
0.26794919243112869
10
-135.47019854830887
20
550.08927154714365
10
-144.70780285534286
20
550.08927154714365
42
0.26794919243112075
10
-147.30587906669615
20
548.58927154714377
10
-151.92468122021319
20
540.58927154714377
42
0.26794919243112097
10
-151.92468122021319
20
537.58927154714365
10
-147.30587906669612
20
529.58927154714365
42
0.2679491924311177
10
-144.70780285534283
20
528.08927154714377
10
-135.47019854830882
20
528.08927154714365
42
0.26794919243111454
10
-132.87212233695556
20
529.58927154714365
0
CIRCLE
5
130
100
AcDbEntity
8
0
100
AcDbCircle
10
-140.06984725119369
20
641.08927154872595
30
0
40
1.6500000000000403
210
4.4373425918681914e-31
220
2.5990833859957552e-40
230
1
0
CIRCLE
5
131
100
AcDbEntity
8
0
100
AcDbCircle
10
-140.08900724314375
20
573.08927154711432
30
0
40
1.6500000000000403
210
4.4373425918681914e-31
220
2.5990833859957552e-40
230
1
0
CIRCLE
5
132
100
AcDbEntity
8
0
100
AcDbCircle
10
147.91099929817304
20
573.08927154711432
30
0
40
1.6500000000000059
210
4.4373425918681914e-31
220
2.5990833859957552e-40
230
1
0
CIRCLE
5
133
100
AcDbEntity
8
0
100
AcDbCircle
10
147.89183930622295
20
641.08927154872595
30
0
40
1.6500000000000024
210
4.4373425918681914e-31
220
2.5990833859957552e-40
230
1
0
CIRCLE
5
134
100
AcDbEntity
8
0
100
AcDbCircle
10
118.71099976388973
20
354.78927588773792
30
0
40
1.5999999999999626
210
4.4373425918681914e-31
220
2.5990833859957552e-40
230
1
0
CIRCLE
5
135
100
AcDbEntity
8
0
100
AcDbCircle
10
178.71099818957433
20
414.78927746205306
30
0
40
1.599999999999933
210
4.4373425918681914e-31
220
2.5990833859957552e-40
230
1
0
CIRCLE
5
136
100
AcDbEntity
8
0
100
AcDbCircle
10
178.71099425903361
20
564.58927679698411
30
0
40
1.5999999999999841
210
4.4373425918681914e-31
220
2.5990833859957552e-40
230
1
0
CIRCLE
5
137
100
AcDbEntity
8
0
100
AcDbCircle
10
178.71099032849293
20
714.38927613191504
30
0
40
1.5999999999999841
210
4.4373425918681914e-31
220
2.5990833859957552e-40
230
1
0
CIRCLE
5
138
100
AcDbEntity
8
0
100
AcDbCircle
10
118.71099425903353
20
774.38927455759972
30
0
40
1.5999999999999559
210
4.4373425918681914e-31
220
2.5990833859957552e-40
230
1
0
CIRCLE
5
139
100
AcDbEntity
8
0
100
AcDbCircle
10
3.9109979954088203
20
489.58927221047861
30
0
40
1.5999999999999903
210
4.4373425918681914e-31
220
2.5990833859957552e-40
230
1
0
CIRCLE
5
140
100
AcDbEntity
8
0
100
AcDbCircle
10
3.9109997638896843
20
354.78927287554757
30
0
40
1.5999999999999903
210
4.4373425918681914e-31
220
2.5990833859957552e-40
230
1
0
CIRCLE
5
141
100
AcDbEntity
8
0
100
AcDbCircle
10
-170.88900023611041
20
564.58927221047861
30
0
40
1.5999999999999348
210
4.4373425918681914e-31
220
2.5990833859957552e-40
230
1
0
CIRCLE
5
142
100
AcDbEntity
8
0
100
AcDbCircle
10
3.9109960275146349
20
639.58927221047861
30
0
40
1.5999999999999903
210
4.4373425918681914e-31
220
2.5990833859957552e-40
230
1
0
CIRCLE
5
143
100
AcDbEntity
8
0
100
AcDbCircle
10
-170.88900023611041
20
414.78927287554757
30
0
40
1.5999999999999903
210
4.4373425918681914e-31
220
2.5990833859957552e-40
230
1
0
CIRCLE
5
144
100
AcDbEntity
8
0
100
AcDbCircle
10
-170.88900023611046
20
714.38927154540966
30
0
40
1.5999999999999348
210
4.4373425918681914e-31
220
2.5990833859957552e-40
230
1
0
CIRCLE
5
145
100
AcDbEntity
8
0
100
AcDbCircle
10
-110.88900574096634
20
774.38927154540977
30
0
40
1.5999999999999348
210
4.4373425918681914e-31
220
2.5990833859957552e-40
230
1
0
CIRCLE
5
146
100
AcDbEntity
8
0
100
AcDbCircle
10
3.9109942590336289
20
774.38927154540977
30
0
40
1.5999999999999903
210
4.4373425918681914e-31
220
2.5990833859957552e-40
230
1
0
CIRCLE
5
147
100
AcDbEntity
8
0
100
AcDbCircle
10
147.91099929817312
20
607.08927154708613
30
0
40
10.999999999999996
210
4.4373425918681914e-31
220
2.5990833859957552e-40
230
1
0
CIRCLE
5
148
100
AcDbEntity
8
0
100
AcDbCircle
10
-139.867446605005
20
607.08927154376192
30
0
40
11.000000000000012
210
4.4373425918681914e-31
220
2.5990833859957552e-40
230
1
0
LWPOLYLINE
5
149
100
AcDbEntity
8
0
100
AcDbPolyline
90
20
70
1
43
0.0
10
-159.88900023611038
20
344.78927287554859
10
167.71099976388973
20
344.7892728755487
42
0.41421356237313667
10
168.71099976388973
20
345.7892728755487
10
168.71099976388973
20
364.78927287554757
10
187.71099929809569
20
364.78927287554757
42
0.41421356237309503
10
188.71099929809571
20
365.78927287554757
10
188.71099929809563
20
763.38927422939469
42
0.4142135623730534
10
187.71099929809563
20
764.38927422939457
10
168.71099425903364
20
764.38927422939457
10
168.71099425903367
20
783.38927154540772
42
0.4142135623731783
10
167.71099425903367
20
784.38927154540784
10
-159.88900574096624
20
784.3892715454075
42
0.41421356237307422
10
-160.88900574096641
20
783.38927154540761
10
-160.88900574096641
20
764.38927154540966
10
-179.88900070190439
20
764.38927154540943
42
0.4142135623730534
10
-180.88900070190442
20
763.38927154540954
10
-180.88900070190434
20
365.78927287554757
42
0.41421356237313667
10
-179.88900070190431
20
364.78927287554757
10
-160.88900023611041
20
364.78927287554757
10
-160.88900023611041
20
345.78927287554859
42
0.41421356237310542
0
LWPOLYLINE
5
150
100
AcDbEntity
8
0
100
AcDbPolyline
90
4
70
1
43
0.0
10
-141.60349837466697
20
357.06155876375931
10
-141.60349837466697
20
350.90850840641804
10
-101.62249837120164
20
350.90850840641804
10
-101.62249841384664
20
357.06155872712884
0
LWPOLYLINE
5
151
100
AcDbEntity
8
0
100
AcDbPolyline
90
4
70
1
43
0.0
10
-82.555493527721609
20
357.06155876330121
10
-82.555493527721609
20
350.90850840641804
10
-50.5744935277216
20
350.90850840641804
10
-50.5744935277216
20
357.06155876330126
0
ENDSEC
0
SECTION
2
OBJECTS
0
DICTIONARY
5
C
100
AcDbDictionary
3
ACAD_GROUP
350
D
3
ACAD_MLINESTYLE
350
17
0
DICTIONARY
5
D
100
AcDbDictionary
0
DICTIONARY
5
1A
330
C
100
AcDbDictionary
0
DICTIONARY
5
17
100
AcDbDictionary
0
ENDSEC
0
EOF
