0
SECTION
2
HEADER
9
$INSUNITS
70
4
9
$ACADVER
1
AC1014
9
$HANDSEED
5
FFFF
0
ENDSEC
0
SECTION
2
TABLES
0
TABLE
2
VPORT
5
8
100
AcDbSymbolTable
0
ENDTAB
0
TABLE
2
LTYPE
5
5
100
AcDbSymbolTable
0
LTYPE
5
14
100
AcDbSymbolTableRecord
100
AcDbLinetypeTableRecord
2
BYBLOCK
70
0
0
LTYPE
5
15
100
AcDbSymbolTableRecord
100
AcDbLinetypeTableRecord
2
BYLAYER
70
0
0
LTYPE
5
16
100
AcDbSymbolTableRecord
100
AcDbLinetypeTableRecord
2
DASHED
70
0
3
Dashed __ __ __ __ __ __ __ __ __ __ __ __ __ _
72
65
73
2
40
0.75
49
0.5
74
0
49
-0.25
74
0
0
ENDTAB
0
TABLE
2
LAYER
5
2
100
AcDbSymbolTable
70
2
0
LAYER
5
50
100
AcDbSymbolTableRecord
100
AcDbLayerTableRecord
2
0
70
0
62
7
6
CONTINUOUS
0
ENDTAB
0
TABLE
2
STYLE
5
3
100
AcDbSymbolTable
70
1
0
STYLE
5
11
100
AcDbSymbolTableRecord
100
AcDbTextStyleTableRecord
2
STANDARD
70
0
0
ENDTAB
0
TABLE
2
VIEW
5
6
100
AcDbSymbolTable
70
0
0
ENDTAB
0
TABLE
2
UCS
5
7
100
AcDbSymbolTable
70
0
0
ENDTAB
0
TABLE
2
APPID
5
9
100
AcDbSymbolTable
70
2
0
APPID
5
12
100
AcDbSymbolTableRecord
100
AcDbRegAppTableRecord
2
ACAD
70
0
0
ENDTAB
0
TABLE
2
DIMSTYLE
5
A
100
AcDbSymbolTable
70
1
0
ENDTAB
0
TABLE
2
BLOCK_RECORD
5
1
100
AcDbSymbolTable
70
1
0
BLOCK_RECORD
5
1F
100
AcDbSymbolTableRecord
100
AcDbBlockTableRecord
2
*MODEL_SPACE
0
BLOCK_RECORD
5
1B
100
AcDbSymbolTableRecord
100
AcDbBlockTableRecord
2
*PAPER_SPACE
0
ENDTAB
0
ENDSEC
0
SECTION
2
BLOCKS
0
BLOCK
5
20
100
AcDbEntity
100
AcDbBlockBegin
2
*MODEL_SPACE
0
ENDBLK
5
21
100
AcDbEntity
100
AcDbBlockEnd
0
BLOCK
5
1C
100
AcDbEntity
100
AcDbBlockBegin
2
*PAPER_SPACE
0
ENDBLK
5
1D
100
AcDbEntity
100
AcDbBlockEnd
0
ENDSEC
0
SECTION
2
ENTITIES
0
CIRCLE
5
100
100
AcDbEntity
8
0
100
AcDbCircle
10
15.489001167626171
20
257.06679434768614
30
0
40
1.6500000000000092
210
1.4138280423620018e-32
220
3.944304526105059e-31
230
1
0
LWPOLYLINE
5
101
100
AcDbEntity
8
0
100
AcDbPolyline
90
14
70
1
43
0.0
10
11.489001167626167
20
260.19179434768608
42
0.41421356237312817
10
10.489001167626171
20
261.19179434768608
10
-0.81099883237381043
20
261.19179434768614
42
-0.41421356237306639
10
-1.810998832373798
20
262.19179434768603
10
-1.8109988323738335
20
263.19179434768608
42
0.99999999999999989
10
-5.8109988323738193
20
263.19179434768608
10
-5.8109988323737838
20
262.19179434768603
42
-0.41421356237306384
10
-6.8109988323738335
20
261.19179434768603
10
-18.110998832373831
20
261.19179434768614
42
0.41421356237310736
10
-19.110998832373838
20
260.19179434768608
10
-19.110998832373824
20
253.94179434768606
42
0.41421356237309503
10
-18.110998832373824
20
252.94179434768608
10
10.489001167626171
20
252.94179434768608
42
0.41421356237309503
10
11.489001167626203
20
253.94179434768608
0
CIRCLE
5
102
100
AcDbEntity
8
0
100
AcDbCircle
10
-23.110998832373859
20
257.06679434768614
30
0
40
1.6500000000000268
210
1.4138280423620144e-32
220
1.3171933870353165e-48
230
1
0
LWPOLYLINE
5
103
100
AcDbEntity
8
0
100
AcDbPolyline
90
16
70
1
43
0.0
10
160.88900116762628
20
306.66679153442198
10
160.88900116762628
20
406.36679434768598
10
-168.71099883237375
20
406.36679434768598
10
-168.71099883237375
20
306.66679153437775
10
-113.21099246317803
20
306.66679153437775
10
-107.7109924631781
20
301.16679153437781
10
-107.71099246317809
20
201.96679153437793
10
-113.21099246317829
20
196.46679153437776
10
-188.71099929809577
20
196.46679153437776
10
-188.71099929809574
20
-90.433208465575703
10
180.88900070190422
20
-90.433208465575646
10
180.88900070190425
20
196.46679153442187
10
105.38899612856977
20
196.46679153442179
10
99.888996128569758
20
201.9667915344219
10
99.888996128569758
20
301.16679153442203
10
105.38899612856969
20
306.66679153442198
0
LWPOLYLINE
5
104
100
AcDbEntity
8
0
100
AcDbPolyline
90
4
70
1
43
0.0
10
37.902529295986852
20
45.135773698660245
10
154.83448350948964
20
45.135773698660259
10
154.83448350948964
20
34.293269356309018
10
37.902529295986866
20
34.293269356309004
0
CIRCLE
5
105
100
AcDbEntity
8
0
100
AcDbCircle
10
-149.94972737921319
20
74.518000219227233
30
7.1054273576010019e-14
40
4.5000000000000036
210
1.4138280423618524e-32
220
1.3171933870351723e-48
230
1
0
ARC
5
106
100
AcDbEntity
8
0
100
AcDbCircle
10
24.939001046332983
20
37.888133761439143
30
-1.635304360222809e-45
40
2.1500000000000092
210
-1.104857202194868e-33
220
-5.5780780129325947e-31
230
1
100
AcDbArc
50
-120.5802232796522
51
44.886513649112089
0
LINE
5
107
100
AcDbEntity
8
0
100
AcDbLine
10
23.845200835590493
20
36.037160747324748
30
-1.0336956802969091e-30
11
12.844458313597135
21
21.879011459099065
31
0
0
LINE
5
108
100
AcDbEntity
8
0
100
AcDbLine
10
12.844458313597135
20
21.879011459099065
30
0
11
-15.61869583097446
21
92.510456751431676
31
0
0
LINE
5
109
100
AcDbEntity
8
0
100
AcDbLine
10
-15.61869583097446
20
92.510456751431676
30
0
11
-3.2718298455616002
21
108.98983260166221
31
0
0
LINE
5
110
100
AcDbEntity
8
0
100
AcDbLine
10
-3.2718298455616002
20
108.98983260166221
30
0
11
-1.2843623654574898
21
108.9898326016622
31
1.0716151629713922e-32
0
LINE
5
111
100
AcDbEntity
8
0
100
AcDbLine
10
-1.2843623654574898
20
108.9898326016622
30
1.0716151629713922e-32
11
18.080219719764607
21
59.389402298992941
31
0
0
LINE
5
112
100
AcDbEntity
8
0
100
AcDbLine
10
18.080219719764607
20
59.389402298992941
30
0
11
65.806182261642874
21
121.18200226366355
31
0
0
LINE
5
113
100
AcDbEntity
8
0
100
AcDbLine
10
65.806182261642874
20
121.18200226366355
30
0
11
90.001903913734225
21
121.18200226366355
31
6.1293137794710831e-31
0
CIRCLE
5
114
100
AcDbEntity
8
0
100
AcDbCircle
10
-178.71099929809577
20
53.016791534401023
30
7.1054273576010019e-14
40
1.6499999999999848
210
1.4138280423618442e-32
220
3.944304526105059e-31
230
1
0
CIRCLE
5
115
100
AcDbEntity
8
0
100
AcDbCircle
10
170.88900163334836
20
53.016791534401058
30
0
40
1.6499999999999815
210
1.4138280423618477e-32
220
1.3171933870351678e-48
230
1
0
CIRCLE
5
116
100
AcDbEntity
8
0
100
AcDbCircle
10
170.88900163334836
20
-60.433208465575646
30
0
40
1.649999999999997
210
1.4138280423618442e-32
220
3.9443045261050582e-31
230
1
0
CIRCLE
5
117
100
AcDbEntity
8
0
100
AcDbCircle
10
170.8890016333483
20
166.46679153437782
30
-7.1054273576010019e-14
40
1.6499999999999893
210
1.4138280423618433e-32
220
1.317193387035164e-48
230
1
0
CIRCLE
5
118
100
AcDbEntity
8
0
100
AcDbCircle
10
-178.71099929809577
20
-60.433208465575689
30
0
40
1.6499999999999848
210
1.4138280423618442e-32
220
3.944304526105059e-31
230
1
0
CIRCLE
5
119
100
AcDbEntity
8
0
100
AcDbCircle
10
-178.71099929809577
20
166.46679153437776
30
0
40
1.6499999999999848
210
1.4138280423618442e-32
220
3.944304526105059e-31
230
1
0
CIRCLE
5
120
100
AcDbEntity
8
0
100
AcDbCircle
10
-82.710992463178059
20
206.54627678004391
30
0
40
1.6499999999999848
210
1.4138280423618442e-32
220
3.944304526105059e-31
230
1
0
CIRCLE
5
121
100
AcDbEntity
8
0
100
AcDbCircle
10
-123.71099883237378
20
396.36679434768598
30
0
40
1.6499999999999848
210
1.4138280423618442e-32
220
3.944304526105059e-31
230
1
0
CIRCLE
5
122
100
AcDbEntity
8
0
100
AcDbCircle
10
-3.9109988323737355
20
206.54627678004397
30
0
40
1.6500000000000126
210
1.4138280423618442e-32
220
3.9443045261050582e-31
230
1
0
CIRCLE
5
123
100
AcDbEntity
8
0
100
AcDbCircle
10
-3.9109988323737355
20
296.54627678004397
30
0
40
1.6500000000000126
210
1.4138280423618442e-32
220
3.9443045261050582e-31
230
1
0
CIRCLE
5
124
100
AcDbEntity
8
0
100
AcDbCircle
10
-3.9109988323736644
20
396.36679434768598
30
0
40
1.6500000000000126
210
1.4138280423618442e-32
220
3.9443045261050582e-31
230
1
0
CIRCLE
5
125
100
AcDbEntity
8
0
100
AcDbCircle
10
115.88900116762629
20
396.36679434768598
30
0
40
1.6499999999999848
210
1.4138280423618442e-32
220
3.944304526105059e-31
230
1
0
CIRCLE
5
126
100
AcDbEntity
8
0
100
AcDbCircle
10
74.888994798430645
20
296.54627678004391
30
0
40
1.6499999999999848
210
1.4138280423618442e-32
220
3.944304526105059e-31
230
1
0
CIRCLE
5
127
100
AcDbEntity
8
0
100
AcDbCircle
10
74.888994798430645
20
206.54627678004397
30
0
40
1.6499999999999848
210
1.4138280423618442e-32
220
3.944304526105059e-31
230
1
0
CIRCLE
5
128
100
AcDbEntity
8
0
100
AcDbCircle
10
-82.710992463178059
20
296.54627678004385
30
0
40
1.6499999999999848
210
1.4138280423618442e-32
220
3.944304526105059e-31
230
1
0
ARC
5
129
100
AcDbEntity
8
0
100
AcDbCircle
10
-72.849506912122735
20
-107.65948372091069
30
7.1054273576010019e-14
40
197.489314421215
210
0
220
-0
230
1
100
AcDbArc
50
88.521044816525446
51
98.767934209006455
0
LINE
5
130
100
AcDbEntity
8
0
100
AcDbLine
10
-67.752352916854775
20
89.764041553333257
30
7.1054273576010019e-14
11
-69.714191679031856
21
86.232731781414714
31
0
0
LINE
5
131
100
AcDbEntity
8
0
100
AcDbLine
10
-65.247055418226296
20
92.510456751431676
30
0
11
-117.19068972437725
21
93.463508933373248
31
-9.8607613152626476e-31
0
LINE
5
132
100
AcDbEntity
8
0
100
AcDbLine
10
-63.579894572735533
20
95.511346273307112
30
-4.4589175882963835e-28
11
-65.247055418226296
21
92.510456751431676
31
0
0
ARC
5
133
100
AcDbEntity
8
0
100
AcDbCircle
10
-90.94379049035939
20
-107.46321042588542
30
7.1054273576010019e-14
40
220.65102107181789
210
1.232373959494279e-32
220
2.3350873259089961e-34
230
1
100
AcDbArc
50
91.085503630764393
51
98.617842148010482
0
LINE
5
134
100
AcDbEntity
8
0
100
AcDbLine
10
-95.123909134595806
20
113.14821200766838
30
7.1054273576010019e-14
11
-96.732773448571436
21
109.7006456205724
31
0
0
ARC
5
135
100
AcDbEntity
8
0
100
AcDbCircle
10
-94.666326280599577
20
-1839.5619785432355
30
0
40
1960.7503684151102
210
6.1629557446873403e-33
220
-1.5731244849172617e-35
230
1
100
AcDbArc
50
89.853750048492472
51
92.180134414400058
0
LINE
5
136
100
AcDbEntity
8
0
100
AcDbLine
10
-89.661431725709065
20
121.18200226366355
30
-2.2198052797319994e-45
11
-91.913841765267748
21
117.85222481138085
31
0
0
LINE
5
137
100
AcDbEntity
8
0
100
AcDbLine
10
19.305733404553184
20
98.214946082246456
30
0
11
16.536741277216809
21
102.07913658829179
31
-1.9721522630525295e-30
0
LINE
5
138
100
AcDbEntity
8
0
100
AcDbLine
10
16.536741277216809
20
102.07913658829179
30
-1.9721522630525295e-30
11
25.401349553404042
21
131.32601102340072
31
1.5777218104420236e-29
0
LINE
5
139
100
AcDbEntity
8
0
100
AcDbLine
10
25.401349553404042
20
131.32601102340072
30
1.5777218104420236e-29
11
29.150576385955667
21
131.32601102340072
31
0
0
LINE
5
140
100
AcDbEntity
8
0
100
AcDbLine
10
-89.392971660655121
20
148.22089201277385
30
0
11
-105.60059776333904
21
158.3884044292881
31
0
0
LINE
5
141
100
AcDbEntity
8
0
100
AcDbLine
10
-105.60059776333904
20
158.3884044292881
30
0
11
-9.1650285051022706
21
162.1180737281945
31
0
0
LINE
5
142
100
AcDbEntity
8
0
100
AcDbLine
10
-9.1650285051022706
20
162.1180737281945
30
0
11
-44.95795630566068
21
187.10799853903916
31
0
0
LINE
5
143
100
AcDbEntity
8
0
100
AcDbLine
10
-44.95795630566068
20
187.10799853903916
30
0
11
7.4700028661117202
21
187.5425757669035
31
-9.8607613152626476e-31
0
LINE
5
144
100
AcDbEntity
8
0
100
AcDbLine
10
7.4700028661117202
20
187.5425757669035
30
-9.8607613152626476e-31
11
38.63982285519274
21
168.81722926376071
31
0
0
LINE
5
145
100
AcDbEntity
8
0
100
AcDbLine
10
38.63982285519274
20
168.81722926376071
30
0
11
69.1150930811027
21
179.55359361031316
31
-7.1054273576010019e-14
0
ARC
5
146
100
AcDbEntity
8
0
100
AcDbCircle
10
75.382636395462072
20
161.76311351928217
30
0
40
18.862218349566991
210
0
220
-0
230
1
100
AcDbArc
50
64.805970050129417
51
109.40723816350135
0
LINE
5
147
100
AcDbEntity
8
0
100
AcDbLine
10
83.411999982625957
20
178.83099567999176
30
0
11
107.90018567515008
21
167.31084662665671
31
0
0
ARC
5
148
100
AcDbEntity
8
0
100
AcDbCircle
10
-3.7336455356356169
20
-256.84571589727864
30
0
40
438.60107364542466
210
2.168361052940193e-31
220
-5.1393858323147728e-31
230
1
100
AcDbArc
50
67.875393812150136
51
75.25470854217906
0
ARC
5
149
100
AcDbEntity
8
0
100
AcDbCircle
10
97.297050454315425
20
276.71113488064384
30
0
40
142.50932902406117
210
-9.6824066768751582e-32
220
-1.8669800909982163e-32
230
1
100
AcDbArc
50
280.91393578553743
51
296.75583055489369
0
LINE
5
150
100
AcDbEntity
8
0
100
AcDbLine
10
124.27895089415479
20
136.77941614774642
30
-2.5814032511186263e-45
11
57.535063291339192
21
136.77941614774642
31
-3.9777537857398514e-31
0
LINE
5
151
100
AcDbEntity
8
0
100
AcDbLine
10
21.530511303838601
20
92.910620484547849
30
0
11
38.639822855192755
21
148.22089201277385
31
0
0
LINE
5
152
100
AcDbEntity
8
0
100
AcDbLine
10
38.639822855192755
20
148.22089201277385
30
0
11
-89.392971660655121
21
148.22089201277385
31
0
0
LINE
5
153
100
AcDbEntity
8
0
100
AcDbLine
10
61.784882778806455
20
130.0845614666035
30
3.1554436208840472e-29
11
110.48879545885771
21
130.08456146660353
31
3.432103523900547e-31
0
LINE
5
154
100
AcDbEntity
8
0
100
AcDbLine
10
110.48879545885771
20
130.08456146660353
30
3.432103523900547e-31
11
107.15004451640212
21
125.69552523490748
31
0
0
LINE
5
155
100
AcDbEntity
8
0
100
AcDbLine
10
107.15004451640212
20
125.69552523490748
30
0
11
63.292865994450835
21
125.69552523490748
31
-7.1114999790412632e-31
0
LINE
5
156
100
AcDbEntity
8
0
100
AcDbLine
10
63.292865994450835
20
125.69552523490748
30
-7.1114999790412632e-31
11
19.749850642441842
21
68.454995674040148
31
-3.1554436208840472e-29
0
LINE
5
157
100
AcDbEntity
8
0
100
AcDbLine
10
19.749850642441842
20
68.454995674040148
30
-3.1554436208840472e-29
11
3.4333080567831109
21
108.98983260166221
31
0
0
LINE
5
158
100
AcDbEntity
8
0
100
AcDbLine
10
3.4333080567831109
20
108.98983260166221
30
0
11
8.0580513815543142
21
108.9898326016622
31
5.1622037145040651e-32
0
LINE
5
159
100
AcDbEntity
8
0
100
AcDbLine
10
8.0580513815543142
20
108.9898326016622
30
5.1622037145040651e-32
11
21.110023009913057
21
76.086258545161485
31
0
0
ARC
5
160
100
AcDbEntity
8
0
100
AcDbCircle
10
-96.755428944733069
20
-1884.2841465126235
30
0
40
2022.4668272352305
210
1.8488117939227794e-32
220
-1.7301419755716927e-34
230
1
100
AcDbArc
50
89.463834340059449
51
92.038591264595851
0
LINE
5
161
100
AcDbEntity
8
0
100
AcDbLine
10
-77.829751625626571
20
138.09412819390445
30
-6.8690272053476262e-45
11
-80.927596878397239
21
133.80480399773776
31
0
0
LINE
5
162
100
AcDbEntity
8
0
100
AcDbLine
10
27.384251497103218
20
138.92699095900662
30
0
11
12.302771913284227
21
119.76913241078782
31
0
0
LINE
5
163
100
AcDbEntity
8
0
100
AcDbLine
10
-5.8407050405836181
20
119.76913241078783
30
-8.882299429625354e-32
11
-47.246221716179122
21
64.333269576926824
31
-3.1554436208840472e-29
0
LINE
5
164
100
AcDbEntity
8
0
100
AcDbLine
10
-47.246221716179122
20
64.333269576926824
30
-3.1554436208840472e-29
11
-70.325455624739874
21
64.333269576926838
31
-2.4338692449168178e-31
0
LINE
5
165
100
AcDbEntity
8
0
100
AcDbLine
10
-70.325455624739874
20
64.333269576926838
30
-2.4338692449168178e-31
11
-29.971072374698096
21
119.76913241078783
31
0
0
LINE
5
166
100
AcDbEntity
8
0
100
AcDbLine
10
-29.971072374698096
20
119.76913241078783
30
0
11
-74.52998932689755
21
119.76913241078783
31
4.2658877508163484e-32
0
LINE
5
167
100
AcDbEntity
8
0
100
AcDbLine
10
-74.52998932689755
20
119.76913241078783
30
4.2658877508163484e-32
11
-61.317018534494849
21
138.92699095900662
31
0
0
LINE
5
168
100
AcDbEntity
8
0
100
AcDbLine
10
-61.317018534494849
20
138.92699095900662
30
0
11
27.384251497103218
21
138.92699095900662
31
0
0
LINE
5
169
100
AcDbEntity
8
0
100
AcDbLine
10
-75.151287677054313
20
78.833797021215304
30
0
11
-119.48884370204252
21
80.62623785504482
31
9.8607613152626476e-31
0
LINE
5
170
100
AcDbEntity
8
0
100
AcDbLine
10
-72.249927610003397
20
82.41867868886942
30
-5.0285008927349899e-46
11
-75.151287677054313
21
78.833797021215304
31
0
0
LINE
5
171
100
AcDbEntity
8
0
100
AcDbLine
10
9.1052478085845934
20
18.335353031710046
30
0
11
6.7001971034593666
21
15.320246324166476
31
-1.9721522630525295e-30
0
LINE
5
172
100
AcDbEntity
8
0
100
AcDbLine
10
6.7001971034593666
20
15.320246324166476
30
-1.9721522630525295e-30
11
-21.773997264110964
21
83.918764223234476
31
-3.1554436208840472e-29
0
LINE
5
173
100
AcDbEntity
8
0
100
AcDbLine
10
-21.773997264110964
20
83.918764223234476
30
-3.1554436208840472e-29
11
-18.578369979716598
21
87.867238526211139
31
0
0
ARC
5
174
100
AcDbEntity
8
0
100
AcDbCircle
10
-52.193973676407808
20
-58.512795521733885
30
0
40
106.08443196369238
210
8.4474353291004018e-33
220
3.9443045261050257e-31
230
1
100
AcDbArc
50
89.999999999978286
51
97.775996759378131
0
LINE
5
175
100
AcDbEntity
8
0
100
AcDbLine
10
-36.663235473486395
20
47.571636441958461
30
-2.8292506889709162e-31
11
-37.692535645622307
21
45.718896132124812
31
9.8607613152626476e-31
0
LINE
5
176
100
AcDbEntity
8
0
100
AcDbLine
10
-37.692535645622307
20
45.718896132124812
30
9.8607613152626476e-31
11
-66.547250471066178
21
46.596148675775765
31
-4.1336920055752241e-29
0
LINE
5
177
100
AcDbEntity
8
0
100
AcDbLine
10
-82.883481187960399
20
115.3875064059915
30
0
11
-38.672153073718967
21
115.38750640599153
31
-1.5777068578106359e-31
0
LINE
5
178
100
AcDbEntity
8
0
100
AcDbLine
10
-38.672153073718967
20
115.38750640599153
30
-1.5777068578106359e-31
11
-78.872230983481472
21
59.942059966916538
31
0
0
LINE
5
179
100
AcDbEntity
8
0
100
AcDbLine
10
-38.322863611502989
20
59.942059966916538
30
-3.8369700837380321e-31
11
-26.828878227254656
21
75.794993198152923
31
0
0
LINE
5
180
100
AcDbEntity
8
0
100
AcDbLine
10
-26.828878227254656
20
75.794993198152923
30
0
11
-25.135841981715927
21
71.711788135400752
31
0
0
LINE
5
181
100
AcDbEntity
8
0
100
AcDbLine
10
-25.135841981715927
20
71.711788135400752
30
0
11
-37.186276435210921
21
55.859073825842565
31
7.8886090522101181e-30
0
LINE
5
182
100
AcDbEntity
8
0
100
AcDbLine
10
-37.186276435210921
20
55.859073825842565
30
7.8886090522101181e-30
11
-86.548264979880614
21
55.859073825842529
31
4.2505032425839545e-31
0
LINE
5
183
100
AcDbEntity
8
0
100
AcDbLine
10
-86.548264979880614
20
55.859073825842529
30
4.2505032425839545e-31
11
-46.583119801812849
21
110.98049228117031
31
0
0
LINE
5
184
100
AcDbEntity
8
0
100
AcDbLine
10
-46.583119801812849
20
110.98049228117031
30
0
11
-90.400837237503879
21
110.98049228117034
31
7.1054273576010019e-14
0
LINE
5
185
100
AcDbEntity
8
0
100
AcDbLine
10
-90.400837237503879
20
110.98049228117034
30
7.1054273576010019e-14
11
-70.325455624739874
21
140.6156634937235
31
7.1054273576010019e-14
0
LINE
5
186
100
AcDbEntity
8
0
100
AcDbLine
10
-70.325455624739874
20
140.6156634937235
30
7.1054273576010019e-14
11
-65.247055418226296
21
140.6156634937235
31
-4.4741845900631689e-32
0
LINE
5
187
100
AcDbEntity
8
0
100
AcDbLine
10
-65.247055418226296
20
140.6156634937235
30
-4.4741845900631689e-32
11
-82.883481187960399
21
115.3875064059915
31
0
0
SPLINE
5
188
100
AcDbEntity
8
0
100
AcDbSpline
70
0
71
3
72
8
73
4
74
0
42
0.000000001
43
0.0000000001
44
0.0000000001
40
0
40
0
40
0
40
0
40
0.9865897197921899
40
0.9865897197921899
40
0.9865897197921899
40
0.9865897197921899
10
-79.531521067189772
20
52.026863908143646
30
7.1054273576010019e-14
10
-67.054826773948861
20
49.712203913316529
30
0
10
-55.024650152293937
20
49.991455626198203
30
0
10
-41.576224034330096
20
49.991455626198203
30
0
0
LINE
5
189
100
AcDbEntity
8
0
100
AcDbLine
10
-79.531521067189772
20
52.026863908143646
30
7.1054273576010019e-14
11
-36.043081029548958
21
52.026863908143646
31
7.1054273576010019e-14
0
LINE
5
190
100
AcDbEntity
8
0
100
AcDbLine
10
-36.043081029548958
20
52.026863908143646
30
7.1054273576010019e-14
11
-24.27418913127287
21
67.951510117223975
31
0
0
LINE
5
191
100
AcDbEntity
8
0
100
AcDbLine
10
-24.27418913127287
20
67.951510117223975
30
0
11
-22.655840498906521
21
65.23727185978224
31
0
0
LINE
5
192
100
AcDbEntity
8
0
100
AcDbLine
10
-34.24494162222647
20
49.99145562619826
30
7.8886090522101181e-30
11
-41.576224034330096
21
49.991455626198203
31
9.9173918125498859e-30
0
LWPOLYLINE
5
193
100
AcDbEntity
8
0
100
AcDbPolyline
90
4
70
1
43
0.0
10
60.521409671826532
20
-39.936566027884936
42
0.99999824719801711
10
60.521418092929451
20
-81.372708164944697
10
131.66284682338599
20
-81.390404948429506
42
0.99999999999999989
10
131.67339102657465
20
-39.954264152890929
0
ENDSEC
0
SECTION
2
OBJECTS
0
DICTIONARY
5
C
100
AcDbDictionary
3
ACAD_GROUP
350
D
3
ACAD_MLINESTYLE
350
17
0
DICTIONARY
5
D
100
AcDbDictionary
0
DICTIONARY
5
1A
330
C
100
AcDbDictionary
0
DICTIONARY
5
17
100
AcDbDictionary
0
ENDSEC
0
EOF
