0
SECTION
2
HEADER
9
$INSUNITS
70
4
9
$ACADVER
1
AC1014
9
$HANDSEED
5
FFFF
0
ENDSEC
0
SECTION
2
TABLES
0
TABLE
2
VPORT
5
8
100
AcDbSymbolTable
0
ENDTAB
0
TABLE
2
LTYPE
5
5
100
AcDbSymbolTable
0
LTYPE
5
14
100
AcDbSymbolTableRecord
100
AcDbLinetypeTableRecord
2
BYBLOCK
70
0
0
LTYPE
5
15
100
AcDbSymbolTableRecord
100
AcDbLinetypeTableRecord
2
BYLAYER
70
0
0
ENDTAB
0
TABLE
2
LAYER
5
2
100
AcDbSymbolTable
70
2
0
LAYER
5
50
100
AcDbSymbolTableRecord
100
AcDbLayerTableRecord
2
0
70
0
6
CONTINUOUS
0
ENDTAB
0
TABLE
2
STYLE
5
3
100
AcDbSymbolTable
70
1
0
STYLE
5
11
100
AcDbSymbolTableRecord
100
AcDbTextStyleTableRecord
2
STANDARD
70
0
0
ENDTAB
0
TABLE
2
VIEW
5
6
100
AcDbSymbolTable
70
0
0
ENDTAB
0
TABLE
2
UCS
5
7
100
AcDbSymbolTable
70
0
0
ENDTAB
0
TABLE
2
APPID
5
9
100
AcDbSymbolTable
70
2
0
APPID
5
12
100
AcDbSymbolTableRecord
100
AcDbRegAppTableRecord
2
ACAD
70
0
0
ENDTAB
0
TABLE
2
DIMSTYLE
5
A
100
AcDbSymbolTable
70
1
0
ENDTAB
0
TABLE
2
BLOCK_RECORD
5
1
100
AcDbSymbolTable
70
1
0
BLOCK_RECORD
5
1F
100
AcDbSymbolTableRecord
100
AcDbBlockTableRecord
2
*MODEL_SPACE
0
BLOCK_RECORD
5
1B
100
AcDbSymbolTableRecord
100
AcDbBlockTableRecord
2
*PAPER_SPACE
0
ENDTAB
0
ENDSEC
0
SECTION
2
BLOCKS
0
BLOCK
5
20
100
AcDbEntity
100
AcDbBlockBegin
2
*MODEL_SPACE
0
ENDBLK
5
21
100
AcDbEntity
100
AcDbBlockEnd
0
BLOCK
5
1C
100
AcDbEntity
100
AcDbBlockBegin
2
*PAPER_SPACE
0
ENDBLK
5
1D
100
AcDbEntity
100
AcDbBlockEnd
0
ENDSEC
0
SECTION
2
ENTITIES
0
LWPOLYLINE
5
100
100
AcDbEntity
8
0
100
AcDbPolyline
90
4
70
1
43
0.0
10
344.58930833851059
20
406.56677246093744
10
344.58930833851247
20
-113.4332275390684
10
771.58930969236371
20
-113.43322753906691
10
771.58930969236167
20
406.56677246093892
0
CIRCLE
5
101
100
AcDbEntity
8
0
100
AcDbCircle
10
564.58930767344464
20
296.56676964767524
30
-3.9233818394102116e-06
40
1.6500000000000126
210
-2.1494430957014837e-24
220
2.149413955339453e-24
230
1
0
CIRCLE
5
102
100
AcDbEntity
8
0
100
AcDbCircle
10
564.63929622948979
20
396.56677246093818
30
-3.9233818394102116e-06
40
1.6500000000000126
210
-2.1494430957014837e-24
220
2.149413955339453e-24
230
1
0
CIRCLE
5
103
100
AcDbEntity
8
0
100
AcDbCircle
10
729.58930969238281
20
396.56677246093875
30
-3.9233818394102116e-06
40
1.6499999999999848
210
-2.1494430957014837e-24
220
2.149413955339453e-24
230
1
0
CIRCLE
5
104
100
AcDbEntity
8
0
100
AcDbCircle
10
729.58930969238338
20
206.56676964767473
30
-3.9233818394102116e-06
40
1.6499999999999848
210
-2.1494430957014837e-24
220
2.149413955339453e-24
230
1
0
CIRCLE
5
105
100
AcDbEntity
8
0
100
AcDbCircle
10
399.66929064141732
20
296.59975409821749
30
-3.9233818394102116e-06
40
1.6499999999999571
210
-2.1494430957014837e-24
220
2.149413955339453e-24
230
1
0
CIRCLE
5
106
100
AcDbEntity
8
0
100
AcDbCircle
10
399.58930895298886
20
-103.40023790544414
30
-3.9233818394102116e-06
40
1.6500000000000126
210
-2.1494430957014837e-24
220
2.149413955339453e-24
230
1
0
CIRCLE
5
107
100
AcDbEntity
8
0
100
AcDbCircle
10
354.58930833851446
20
-58.433230352325296
30
-3.9233818394102116e-06
40
1.6500000000000075
210
-2.1494430957014837e-24
220
2.149413955339453e-24
230
1
0
CIRCLE
5
108
100
AcDbEntity
8
0
100
AcDbCircle
10
354.5893083385136
20
171.56676964767345
30
-3.9233818394102116e-06
40
1.6500000000000059
210
-2.1494430957014837e-24
220
2.149413955339453e-24
230
1
0
CIRCLE
5
109
100
AcDbEntity
8
0
100
AcDbCircle
10
354.58930833851298
20
56.566769647674064
30
-3.9233818394102116e-06
40
1.6500000000000024
210
-2.1494430957014837e-24
220
2.149413955339453e-24
230
1
0
CIRCLE
5
110
100
AcDbEntity
8
0
100
AcDbCircle
10
399.68928606408696
20
396.59975491239584
30
-3.9233818394102116e-06
40
1.6500000000000126
210
-2.1494430957014837e-24
220
2.149413955339453e-24
230
1
0
CIRCLE
5
111
100
AcDbEntity
8
0
100
AcDbCircle
10
399.65129476152094
20
206.59975589739253
30
-3.9233818394102116e-06
40
1.6499999999999571
210
-2.1494430957014837e-24
220
2.149413955339453e-24
230
1
0
CIRCLE
5
112
100
AcDbEntity
8
0
100
AcDbCircle
10
729.58930969238304
20
296.56676964767587
30
-3.9233818394102116e-06
40
1.6499999999999848
210
-2.1494430957014837e-24
220
2.149413955339453e-24
230
1
0
CIRCLE
5
113
100
AcDbEntity
8
0
100
AcDbCircle
10
729.58930969238463
20
-103.43323035232395
30
-3.9233818394102116e-06
40
1.6499999999999848
210
-2.1494430957014837e-24
220
2.149413955339453e-24
230
1
0
CIRCLE
5
114
100
AcDbEntity
8
0
100
AcDbCircle
10
564.58930767344202
20
-103.43323035232451
30
-3.9233818394102116e-06
40
1.6500000000000126
210
-2.1494430957014837e-24
220
2.149413955339453e-24
230
1
0
CIRCLE
5
115
100
AcDbEntity
8
0
100
AcDbCircle
10
564.58930833851355
20
206.56676964767416
30
-3.9233818394102116e-06
40
1.6500000000000126
210
-2.1494430957014837e-24
220
2.149413955339453e-24
230
1
0
CIRCLE
5
116
100
AcDbEntity
8
0
100
AcDbCircle
10
354.58930833851349
20
171.56676964767342
30
0
40
1.6500000000000057
210
2.8530921724943939e-31
220
4.4373426616631799e-31
230
1
0
CIRCLE
5
117
100
AcDbEntity
8
0
100
AcDbCircle
10
354.58930833851286
20
56.566769647674064
30
0
40
1.6500000000000021
210
2.8530921724943939e-31
220
4.4373426616631799e-31
230
1
0
CIRCLE
5
118
100
AcDbEntity
8
0
100
AcDbCircle
10
354.58930833851434
20
-58.433230352325296
30
0
40
1.6500000000000072
210
2.8530921724943939e-31
220
4.4373426616631799e-31
230
1
0
CIRCLE
5
119
100
AcDbEntity
8
0
100
AcDbCircle
10
399.68928606408679
20
396.59975491239578
30
0
40
1.6500000000000123
210
2.8530921724943939e-31
220
4.4373426616631799e-31
230
1
0
CIRCLE
5
120
100
AcDbEntity
8
0
100
AcDbCircle
10
399.58930895298869
20
-103.40023790544407
30
0
40
1.6500000000000123
210
2.8530921724943939e-31
220
4.4373426616631799e-31
230
1
0
CIRCLE
5
121
100
AcDbEntity
8
0
100
AcDbCircle
10
399.65129476152077
20
206.5997558973925
30
0
40
1.6499999999999568
210
2.8530921724943939e-31
220
4.4373426616631799e-31
230
1
0
CIRCLE
5
122
100
AcDbEntity
8
0
100
AcDbCircle
10
399.66929064141715
20
296.59975409821743
30
0
40
1.6499999999999568
210
2.8530921724943939e-31
220
4.4373426616631799e-31
230
1
0
CIRCLE
5
123
100
AcDbEntity
8
0
100
AcDbCircle
10
729.58930969238293
20
296.56676964767581
30
0
40
1.6499999999999846
210
2.8530921724943939e-31
220
4.4373426616631799e-31
230
1
0
CIRCLE
5
124
100
AcDbEntity
8
0
100
AcDbCircle
10
729.58930969238327
20
206.5667696476747
30
0
40
1.6499999999999846
210
2.8530921724943939e-31
220
4.4373426616631799e-31
230
1
0
CIRCLE
5
125
100
AcDbEntity
8
0
100
AcDbCircle
10
729.58930969238452
20
-103.43323035232387
30
0
40
1.6499999999999846
210
2.8530921724943939e-31
220
4.4373426616631799e-31
230
1
0
CIRCLE
5
126
100
AcDbEntity
8
0
100
AcDbCircle
10
729.58930969238259
20
396.56677246093869
30
0
40
1.6499999999999846
210
2.8530921724943939e-31
220
4.4373426616631799e-31
230
1
0
CIRCLE
5
127
100
AcDbEntity
8
0
100
AcDbCircle
10
564.58930767344191
20
-103.43323035232444
30
0
40
1.6500000000000123
210
2.8530921724943939e-31
220
4.4373426616631799e-31
230
1
0
CIRCLE
5
128
100
AcDbEntity
8
0
100
AcDbCircle
10
564.63929622948956
20
396.56677246093813
30
0
40
1.6500000000000123
210
2.8530921724943939e-31
220
4.4373426616631799e-31
230
1
0
CIRCLE
5
129
100
AcDbEntity
8
0
100
AcDbCircle
10
564.58930833851332
20
206.56676964767414
30
0
40
1.6500000000000123
210
2.8530921724943939e-31
220
4.4373426616631799e-31
230
1
0
CIRCLE
5
130
100
AcDbEntity
8
0
100
AcDbCircle
10
564.58930767344452
20
296.56676964767519
30
0
40
1.6500000000000123
210
2.8530921724943939e-31
220
4.4373426616631799e-31
230
1
0
LWPOLYLINE
5
131
100
AcDbEntity
8
0
100
AcDbPolyline
90
4
70
1
43
0.0
10
344.58930833851042
20
406.56677246093739
10
344.58930833851235
20
-113.43322753906833
10
771.58930969236337
20
-113.43322753906683
10
771.58930969236155
20
406.56677246093886
0
ENDSEC
0
SECTION
2
OBJECTS
0
DICTIONARY
5
C
100
AcDbDictionary
3
ACAD_GROUP
350
D
3
ACAD_MLINESTYLE
350
17
0
DICTIONARY
5
D
100
AcDbDictionary
0
DICTIONARY
5
1A
330
C
100
AcDbDictionary
0
DICTIONARY
5
17
100
AcDbDictionary
0
ENDSEC
0
EOF
